<svg width="16" height="16" viewBox="0 0 16 16" fill="none" xmlns="http://www.w3.org/2000/svg">
<path fill-rule="evenodd" clip-rule="evenodd" d="M0.999991 8.00002C0.999991 8.13263 1.05267 8.25981 1.14644 8.35357C1.24021 8.44734 1.36738 8.50002 1.49999 8.50002L13.293 8.50002L10.146 11.646C10.0521 11.7399 9.99936 11.8672 9.99936 12C9.99936 12.1328 10.0521 12.2601 10.146 12.354C10.2399 12.4479 10.3672 12.5007 10.5 12.5007C10.6328 12.5007 10.7601 12.4479 10.854 12.354L14.854 8.35402C14.9006 8.30758 14.9375 8.2524 14.9627 8.19165C14.9879 8.13091 15.0009 8.06579 15.0009 8.00002C15.0009 7.93425 14.9879 7.86913 14.9627 7.80839C14.9375 7.74764 14.9006 7.69247 14.854 7.64602L10.854 3.64602C10.8075 3.59953 10.7523 3.56266 10.6916 3.5375C10.6308 3.51234 10.5657 3.49939 10.5 3.49939C10.3672 3.49939 10.2399 3.55213 10.146 3.64602C10.0521 3.73991 9.99936 3.86725 9.99936 4.00002C9.99936 4.1328 10.0521 4.26013 10.146 4.35402L13.293 7.50002L1.49999 7.50002C1.36738 7.50002 1.24021 7.5527 1.14644 7.64647C1.05267 7.74024 0.999991 7.86741 0.999991 8.00002Z" fill="white"/>
</svg>
