<svg width="145" height="160" viewBox="0 0 145 160" fill="none" xmlns="http://www.w3.org/2000/svg">
<g opacity="0.15">
<path fill-rule="evenodd" clip-rule="evenodd" d="M139.642 6.08622H142.991C144.33 6.08622 145 5.21666 145 4.34709V1.44854C145 0.578978 144.33 -0.000732422 143.326 -0.000732422H139.977C138.972 -0.000732422 138.303 0.578978 138.303 1.44854V4.34709C137.968 5.21666 138.972 6.08622 139.642 6.08622Z" fill="#5F138D"/>
<path fill-rule="evenodd" clip-rule="evenodd" d="M139.642 14.2022H142.991C144.33 14.2022 145 13.3326 145 12.4631V9.56451C145 8.69494 144.33 8.11523 143.326 8.11523H139.977C138.972 8.11523 138.303 8.69494 138.303 9.56451V12.4631C137.968 13.3326 138.972 14.2022 139.642 14.2022Z" fill="#5F138D"/>
<path fill-rule="evenodd" clip-rule="evenodd" d="M139.642 22.318H142.991C144.33 22.318 145 21.4485 145 20.5789V17.6804C145 16.8108 144.33 16.2311 143.326 16.2311H139.977C138.972 16.2311 138.303 16.8108 138.303 17.6804V20.5789C137.968 21.4485 138.972 22.318 139.642 22.318Z" fill="#5F138D"/>
<path fill-rule="evenodd" clip-rule="evenodd" d="M139.642 30.4341H142.991C144.33 30.4341 145 29.5646 145 28.695V25.7964C145 24.9269 144.33 24.3472 143.326 24.3472H139.977C138.972 24.3472 138.303 24.9269 138.303 25.7964V28.695C137.968 29.5646 138.972 30.4341 139.642 30.4341Z" fill="#5F138D"/>
<path fill-rule="evenodd" clip-rule="evenodd" d="M139.642 38.5498H142.991C144.33 38.5498 145 37.6803 145 36.8107V33.9122C145 33.0426 144.33 32.4629 143.326 32.4629H139.977C138.972 32.4629 138.303 33.0426 138.303 33.9122V36.8107C137.968 37.6803 138.972 38.5498 139.642 38.5498Z" fill="#5F138D"/>
<path fill-rule="evenodd" clip-rule="evenodd" d="M139.642 46.6661H142.99C143.995 46.6661 144.665 46.0863 144.665 45.2168V42.3182C145 41.1588 144.33 40.5791 143.325 40.5791H139.977C138.972 40.5791 138.302 41.1588 138.302 42.0284V44.9269C137.967 45.7965 138.972 46.6661 139.642 46.6661Z" fill="#5F138D"/>
<path fill-rule="evenodd" clip-rule="evenodd" d="M139.642 54.7818H142.991C143.995 54.7818 144.665 54.2021 144.665 53.3326V50.434C144.665 49.5645 143.995 48.9847 142.991 48.9847H139.642C138.637 48.9847 137.968 49.5645 137.968 50.434V53.3326C137.968 53.9123 138.972 54.7818 139.642 54.7818Z" fill="#5F138D"/>
<path fill-rule="evenodd" clip-rule="evenodd" d="M139.642 62.6079H142.991C143.995 62.6079 144.665 62.0282 144.665 61.1586V58.2601C144.665 57.3905 143.995 56.8108 142.991 56.8108H139.642C138.637 56.8108 137.968 57.3905 137.968 58.2601V61.1586C137.968 62.0282 138.972 62.6079 139.642 62.6079Z" fill="#5F138D"/>
<path fill-rule="evenodd" clip-rule="evenodd" d="M139.642 70.7241H142.991C143.995 70.7241 144.665 70.1444 144.665 69.2748V66.3763C144.665 65.5067 143.995 64.927 142.991 64.927H139.642C138.637 64.927 137.968 65.5067 137.968 66.3763V69.2748C137.968 70.1444 138.972 70.7241 139.642 70.7241Z" fill="#5F138D"/>
<path fill-rule="evenodd" clip-rule="evenodd" d="M139.642 78.8398H142.991C144.33 78.8398 145 78.2601 145 77.3906V74.492C145 73.6224 144.33 73.0427 143.326 73.0427H139.977C138.972 73.0427 138.303 73.6224 138.303 74.492V77.3906C137.968 78.2601 138.972 78.8398 139.642 78.8398Z" fill="#5F138D"/>
<path fill-rule="evenodd" clip-rule="evenodd" d="M130.601 6.08622H133.95C134.954 6.08622 135.624 5.21666 135.624 4.34709V1.44854C135.624 0.578978 134.954 -0.000732422 133.95 -0.000732422H130.601C129.596 -0.000732422 128.927 0.578978 128.927 1.44854V4.34709C128.927 5.21666 129.596 6.08622 130.601 6.08622Z" fill="#5F138D"/>
<path fill-rule="evenodd" clip-rule="evenodd" d="M130.601 14.2022H133.95C134.954 14.2022 135.624 13.3326 135.624 12.4631V9.56451C135.624 8.69494 134.954 8.11523 133.95 8.11523H130.601C129.596 8.11523 128.927 8.69494 128.927 9.56451V12.4631C128.927 13.3326 129.596 14.2022 130.601 14.2022Z" fill="#5F138D"/>
<path fill-rule="evenodd" clip-rule="evenodd" d="M130.601 22.3182H133.95C134.954 22.3182 135.624 21.4486 135.624 20.579V17.6805C135.624 16.8109 134.954 16.2312 133.95 16.2312H130.601C129.596 16.2312 128.927 16.8109 128.927 17.6805V20.579C128.927 21.4486 129.596 22.3182 130.601 22.3182Z" fill="#5F138D"/>
<path fill-rule="evenodd" clip-rule="evenodd" d="M130.601 30.4341H133.95C134.954 30.4341 135.624 29.8544 135.624 28.9848V26.0862C135.624 25.2167 134.954 24.637 133.95 24.637H130.601C129.596 24.637 128.927 25.2167 128.927 26.0862V28.9848C128.927 29.5645 129.596 30.4341 130.601 30.4341Z" fill="#5F138D"/>
<path fill-rule="evenodd" clip-rule="evenodd" d="M130.601 38.55H133.95C134.954 38.55 135.624 37.9703 135.624 37.1008V34.2022C135.624 33.3326 134.954 32.7529 133.95 32.7529H130.601C129.596 32.7529 128.927 33.3326 128.927 34.2022V37.1008C128.927 37.6805 129.596 38.55 130.601 38.55Z" fill="#5F138D"/>
<path fill-rule="evenodd" clip-rule="evenodd" d="M130.601 46.6661H133.95C134.954 46.6661 135.624 46.0863 135.624 45.2168V42.3182C135.624 41.1588 134.954 40.5791 133.95 40.5791H130.601C129.596 40.5791 128.927 41.1588 128.927 42.0284V44.9269C128.927 45.7965 129.596 46.6661 130.601 46.6661Z" fill="#5F138D"/>
<path fill-rule="evenodd" clip-rule="evenodd" d="M130.601 54.7817H133.95C134.954 54.7817 135.624 54.202 135.624 53.3324V50.4339C135.624 49.5643 134.954 48.9846 133.95 48.9846H130.601C129.596 48.9846 128.927 49.5643 128.927 50.4339V53.3324C128.927 53.9122 129.596 54.7817 130.601 54.7817Z" fill="#5F138D"/>
<path fill-rule="evenodd" clip-rule="evenodd" d="M130.601 62.6079H133.95C134.954 62.6079 135.624 62.0282 135.624 61.1586V58.2601C135.624 57.3905 134.954 56.8108 133.95 56.8108H130.601C129.596 56.8108 128.927 57.3905 128.927 58.2601V61.1586C128.927 62.0282 129.596 62.6079 130.601 62.6079Z" fill="#5F138D"/>
<path fill-rule="evenodd" clip-rule="evenodd" d="M130.601 70.7241H133.95C134.954 70.7241 135.624 70.1444 135.624 69.2748V66.3763C135.624 65.5067 134.954 64.927 133.95 64.927H130.601C129.596 64.927 128.927 65.5067 128.927 66.3763V69.2748C128.927 70.1444 129.596 70.7241 130.601 70.7241Z" fill="#5F138D"/>
<path fill-rule="evenodd" clip-rule="evenodd" d="M130.601 78.8398H133.95C134.954 78.8398 135.624 78.2601 135.624 77.3906V74.492C135.624 73.6224 134.954 73.0427 133.95 73.0427H130.601C129.596 73.0427 128.927 73.6224 128.927 74.492V77.3906C128.927 78.2601 129.596 78.8398 130.601 78.8398Z" fill="#5F138D"/>
<path fill-rule="evenodd" clip-rule="evenodd" d="M121.224 6.08622H124.908C125.912 6.08622 126.582 5.50651 126.582 4.63695V1.7384C126.582 0.578978 125.577 -0.000732422 124.908 -0.000732422H121.559C120.554 -0.000732422 119.885 0.578978 119.885 1.44854V4.34709C119.55 5.21666 120.219 6.08622 121.224 6.08622Z" fill="#5F138D"/>
<path fill-rule="evenodd" clip-rule="evenodd" d="M121.224 14.2022H124.908C125.912 14.2022 126.582 13.6225 126.582 12.7529V9.85436C126.582 8.69494 125.577 8.11523 124.908 8.11523H121.559C120.554 8.11523 119.885 8.69494 119.885 9.56451V12.4631C119.55 13.3326 120.219 14.2022 121.224 14.2022Z" fill="#5F138D"/>
<path fill-rule="evenodd" clip-rule="evenodd" d="M121.224 22.3183H124.908C125.912 22.3183 126.582 21.7386 126.582 20.8691V17.9705C126.582 17.1009 125.912 16.5212 124.908 16.5212H121.559C120.554 16.5212 119.885 17.1009 119.885 17.9705V20.8691C119.55 21.4488 120.219 22.3183 121.224 22.3183Z" fill="#5F138D"/>
<path fill-rule="evenodd" clip-rule="evenodd" d="M121.224 30.4341H124.908C125.912 30.4341 126.582 29.8544 126.582 28.9848V26.0862C126.582 25.2167 125.912 24.637 124.908 24.637H121.559C120.554 24.637 119.885 25.2167 119.885 26.0862V28.9848C119.55 29.5645 120.219 30.4341 121.224 30.4341Z" fill="#5F138D"/>
<path fill-rule="evenodd" clip-rule="evenodd" d="M121.224 38.55H124.908C125.912 38.55 126.582 37.9703 126.582 37.1008V34.2022C126.582 33.3326 125.912 32.7529 124.908 32.7529H121.559C120.554 32.7529 119.885 33.3326 119.885 34.2022V37.1008C119.55 37.6805 120.219 38.55 121.224 38.55Z" fill="#5F138D"/>
<path fill-rule="evenodd" clip-rule="evenodd" d="M121.224 46.6661H124.908C125.912 46.6661 126.582 46.0863 126.582 45.2168V42.3182C126.582 41.1588 125.577 40.5791 124.908 40.5791H121.559C120.554 40.5791 119.885 41.1588 119.885 42.0284V44.9269C119.55 45.7965 120.219 46.6661 121.224 46.6661Z" fill="#5F138D"/>
<path fill-rule="evenodd" clip-rule="evenodd" d="M121.224 54.7818H124.908C125.912 54.7818 126.582 54.2021 126.582 53.3326V50.434C126.582 49.5645 125.912 48.9847 124.908 48.9847H121.559C120.554 48.9847 119.885 49.5645 119.885 50.434V53.3326C119.55 53.9123 120.219 54.7818 121.224 54.7818Z" fill="#5F138D"/>
<path fill-rule="evenodd" clip-rule="evenodd" d="M121.224 62.6079H124.908C125.912 62.6079 126.582 62.0282 126.582 61.1586V58.2601C126.582 57.3905 125.912 56.8108 124.908 56.8108H121.559C120.554 56.8108 119.885 57.3905 119.885 58.2601V61.1586C119.55 62.0282 120.219 62.6079 121.224 62.6079Z" fill="#5F138D"/>
<path fill-rule="evenodd" clip-rule="evenodd" d="M121.224 70.7241H124.908C125.912 70.7241 126.582 70.1444 126.582 69.2748V66.3763C126.582 65.5067 125.912 64.927 124.908 64.927H121.559C120.554 64.927 119.885 65.5067 119.885 66.3763V69.2748C119.55 70.1444 120.219 70.7241 121.224 70.7241Z" fill="#5F138D"/>
<path fill-rule="evenodd" clip-rule="evenodd" d="M121.224 78.8398H124.908C125.912 78.8398 126.582 78.2601 126.582 77.3906V74.492C126.582 73.6224 125.912 73.0427 124.908 73.0427H121.559C120.554 73.0427 119.885 73.6224 119.885 74.492V77.3906C119.55 78.2601 120.219 78.8398 121.224 78.8398Z" fill="#5F138D"/>
<path fill-rule="evenodd" clip-rule="evenodd" d="M112.182 6.08622H115.531C116.535 6.08622 117.205 5.50651 117.205 4.63695V1.7384C117.205 0.578978 116.535 -0.000732422 115.531 -0.000732422H112.182C111.177 -0.000732422 110.508 0.578978 110.508 1.44854V4.34709C110.173 5.21666 111.177 6.08622 112.182 6.08622Z" fill="#5F138D"/>
<path fill-rule="evenodd" clip-rule="evenodd" d="M112.183 14.2021H115.532C116.536 14.2021 117.206 13.6224 117.206 12.7529V9.8543C117.206 8.98474 116.536 8.40503 115.532 8.40503H112.183C111.178 8.40503 110.509 8.98474 110.509 9.8543V12.7529C110.174 13.3326 111.178 14.2021 112.183 14.2021Z" fill="#5F138D"/>
<path fill-rule="evenodd" clip-rule="evenodd" d="M112.183 22.3183H115.532C116.536 22.3183 117.206 21.7386 117.206 20.8691V17.9705C117.206 17.1009 116.536 16.5212 115.532 16.5212H112.183C111.178 16.5212 110.509 17.1009 110.509 17.9705V20.8691C110.174 21.4488 111.178 22.3183 112.183 22.3183Z" fill="#5F138D"/>
<path fill-rule="evenodd" clip-rule="evenodd" d="M112.183 30.4341H115.532C116.536 30.4341 117.206 29.8544 117.206 28.9848V26.0862C117.206 25.2167 116.536 24.637 115.532 24.637H112.183C111.178 24.637 110.509 25.2167 110.509 26.0862V28.9848C110.174 29.5645 111.178 30.4341 112.183 30.4341Z" fill="#5F138D"/>
<path fill-rule="evenodd" clip-rule="evenodd" d="M112.183 38.55H115.532C116.536 38.55 117.206 37.9703 117.206 37.1008V34.2022C117.206 33.3326 116.536 32.7529 115.532 32.7529H112.183C111.178 32.7529 110.509 33.3326 110.509 34.2022V37.1008C110.174 37.6805 111.178 38.55 112.183 38.55Z" fill="#5F138D"/>
<path fill-rule="evenodd" clip-rule="evenodd" d="M112.183 46.666H115.532C116.536 46.666 117.206 46.0863 117.206 45.2167V42.3182C117.206 41.4486 116.536 40.8689 115.532 40.8689H112.183C111.178 40.8689 110.509 41.4486 110.509 42.3182V45.2167C110.174 45.7964 111.178 46.666 112.183 46.666Z" fill="#5F138D"/>
<path fill-rule="evenodd" clip-rule="evenodd" d="M112.183 54.7817H115.532C116.536 54.7817 117.206 54.202 117.206 53.3324V50.4339C117.206 49.5643 116.536 48.9846 115.532 48.9846H112.183C111.178 48.9846 110.509 49.5643 110.509 50.4339V53.3324C110.174 53.9122 111.178 54.7817 112.183 54.7817Z" fill="#5F138D"/>
<path fill-rule="evenodd" clip-rule="evenodd" d="M112.183 62.6079H115.532C116.536 62.6079 117.206 62.0282 117.206 61.1586V58.2601C117.206 57.3905 116.536 56.8108 115.532 56.8108H112.183C111.178 56.8108 110.509 57.3905 110.509 58.2601V61.1586C110.174 62.0282 111.178 62.6079 112.183 62.6079Z" fill="#5F138D"/>
<path fill-rule="evenodd" clip-rule="evenodd" d="M112.183 70.7241H115.532C116.536 70.7241 117.206 70.1444 117.206 69.2748V66.3763C117.206 65.5067 116.536 64.927 115.532 64.927H112.183C111.178 64.927 110.509 65.5067 110.509 66.3763V69.2748C110.174 70.1444 111.178 70.7241 112.183 70.7241Z" fill="#5F138D"/>
<path fill-rule="evenodd" clip-rule="evenodd" d="M112.183 78.8398H115.532C116.536 78.8398 117.206 78.2601 117.206 77.3906V74.492C117.206 73.6224 116.536 73.0427 115.532 73.0427H112.183C111.178 73.0427 110.509 73.6224 110.509 74.492V77.3906C110.174 78.2601 111.178 78.8398 112.183 78.8398Z" fill="#5F138D"/>
<path fill-rule="evenodd" clip-rule="evenodd" d="M102.806 6.08622H106.154C107.159 6.08622 107.829 5.50651 107.829 4.63695V1.7384C108.164 0.578978 107.159 -0.000732422 106.154 -0.000732422H102.806C101.801 -0.000732422 101.131 0.578978 101.131 1.44854V4.34709C101.131 5.21666 101.801 6.08622 102.806 6.08622Z" fill="#5F138D"/>
<path fill-rule="evenodd" clip-rule="evenodd" d="M102.806 14.2021H106.155C107.159 14.2021 107.829 13.6224 107.829 12.7529V9.8543C107.829 8.98474 107.159 8.40503 106.155 8.40503H102.806C101.801 8.40503 101.132 8.98474 101.132 9.8543V12.7529C101.132 13.3326 101.801 14.2021 102.806 14.2021Z" fill="#5F138D"/>
<path fill-rule="evenodd" clip-rule="evenodd" d="M102.806 22.3183H106.155C107.159 22.3183 107.829 21.7386 107.829 20.8691V17.9705C107.829 17.1009 107.159 16.5212 106.155 16.5212H102.806C101.801 16.5212 101.132 17.1009 101.132 17.9705V20.8691C101.132 21.4488 101.801 22.3183 102.806 22.3183Z" fill="#5F138D"/>
<path fill-rule="evenodd" clip-rule="evenodd" d="M102.806 30.4341H106.155C107.159 30.4341 107.829 29.8544 107.829 28.9848V26.0862C107.829 25.2167 107.159 24.637 106.155 24.637H102.806C101.801 24.637 101.132 25.2167 101.132 26.0862V28.9848C101.132 29.5645 101.801 30.4341 102.806 30.4341Z" fill="#5F138D"/>
<path fill-rule="evenodd" clip-rule="evenodd" d="M102.806 38.55H106.155C107.159 38.55 107.829 37.9703 107.829 37.1008V34.2022C107.829 33.3326 107.159 32.7529 106.155 32.7529H102.806C101.801 32.7529 101.132 33.3326 101.132 34.2022V37.1008C101.132 37.6805 101.801 38.55 102.806 38.55Z" fill="#5F138D"/>
<path fill-rule="evenodd" clip-rule="evenodd" d="M102.806 46.666H106.155C107.159 46.666 107.829 46.0863 107.829 45.2167V42.3182C107.829 41.4486 107.159 40.8689 106.155 40.8689H102.806C101.801 40.8689 101.132 41.4486 101.132 42.3182V45.2167C101.132 45.7964 101.801 46.666 102.806 46.666Z" fill="#5F138D"/>
<path fill-rule="evenodd" clip-rule="evenodd" d="M102.806 54.7818H106.155C107.159 54.7818 107.829 54.2021 107.829 53.3326V50.434C107.829 49.5645 107.159 48.9847 106.155 48.9847H102.806C101.801 48.9847 101.132 49.5645 101.132 50.434V53.3326C101.132 53.9123 101.801 54.7818 102.806 54.7818Z" fill="#5F138D"/>
<path fill-rule="evenodd" clip-rule="evenodd" d="M102.806 62.6079H106.155C107.159 62.6079 107.829 62.0282 107.829 61.1586V58.2601C107.829 57.3905 107.159 56.8108 106.155 56.8108H102.806C101.801 56.8108 101.132 57.3905 101.132 58.2601V61.1586C101.132 62.0282 101.801 62.6079 102.806 62.6079Z" fill="#5F138D"/>
<path fill-rule="evenodd" clip-rule="evenodd" d="M102.806 70.7241H106.155C107.159 70.7241 107.829 70.1444 107.829 69.2748V66.3763C107.829 65.5067 107.159 64.927 106.155 64.927H102.806C101.801 64.927 101.132 65.5067 101.132 66.3763V69.2748C101.132 70.1444 101.801 70.7241 102.806 70.7241Z" fill="#5F138D"/>
<path fill-rule="evenodd" clip-rule="evenodd" d="M102.806 78.8398H106.155C107.159 78.8398 107.829 78.2601 107.829 77.3906V74.492C107.829 73.6224 107.159 73.0427 106.155 73.0427H102.806C101.801 73.0427 101.132 73.6224 101.132 74.492V77.3906C101.132 78.2601 101.801 78.8398 102.806 78.8398Z" fill="#5F138D"/>
<path fill-rule="evenodd" clip-rule="evenodd" d="M93.4298 6.08622H96.7786C97.7832 6.08622 98.4529 5.50651 98.4529 4.63695V1.7384C98.7878 0.578978 98.1181 -0.000732422 97.1134 -0.000732422H93.7647C92.7601 -0.000732422 92.0903 0.578978 92.0903 1.44854V4.34709C91.7555 5.21666 92.7601 6.08622 93.4298 6.08622Z" fill="#5F138D"/>
<path fill-rule="evenodd" clip-rule="evenodd" d="M93.4291 14.2021H96.7778C97.7824 14.2021 98.4521 13.6224 98.4521 12.7529V9.8543C98.4521 8.98474 97.7824 8.40503 96.7778 8.40503H93.4291C92.4244 8.40503 91.7547 8.98474 91.7547 9.8543V12.7529C91.7547 13.3326 92.7593 14.2021 93.4291 14.2021Z" fill="#5F138D"/>
<path fill-rule="evenodd" clip-rule="evenodd" d="M93.4291 22.3183H96.7778C97.7824 22.3183 98.4521 21.7386 98.4521 20.8691V17.9705C98.4521 17.1009 97.7824 16.5212 96.7778 16.5212H93.4291C92.4244 16.5212 91.7547 17.1009 91.7547 17.9705V20.8691C91.7547 21.4488 92.7593 22.3183 93.4291 22.3183Z" fill="#5F138D"/>
<path fill-rule="evenodd" clip-rule="evenodd" d="M93.4291 30.4341H96.7778C97.7824 30.4341 98.4521 29.8544 98.4521 28.9848V26.0862C98.4521 25.2167 97.7824 24.637 96.7778 24.637H93.4291C92.4244 24.637 91.7547 25.2167 91.7547 26.0862V28.9848C91.7547 29.5645 92.7593 30.4341 93.4291 30.4341Z" fill="#5F138D"/>
<path fill-rule="evenodd" clip-rule="evenodd" d="M93.4291 38.55H96.7778C97.7824 38.55 98.4521 37.9703 98.4521 37.1008V34.2022C98.4521 33.3326 97.7824 32.7529 96.7778 32.7529H93.4291C92.4244 32.7529 91.7547 33.3326 91.7547 34.2022V37.1008C91.7547 37.6805 92.7593 38.55 93.4291 38.55Z" fill="#5F138D"/>
<path fill-rule="evenodd" clip-rule="evenodd" d="M93.4291 46.666H96.7778C97.7824 46.666 98.4521 46.0863 98.4521 45.2167V42.3182C98.4521 41.4486 97.7824 40.8689 96.7778 40.8689H93.4291C92.4244 40.8689 91.7547 41.4486 91.7547 42.3182V45.2167C91.7547 45.7964 92.7593 46.666 93.4291 46.666Z" fill="#5F138D"/>
<path fill-rule="evenodd" clip-rule="evenodd" d="M93.4291 54.7817H96.7778C97.7824 54.7817 98.4521 54.202 98.4521 53.3324V50.4339C98.4521 49.5643 97.7824 48.9846 96.7778 48.9846H93.4291C92.4244 48.9846 91.7547 49.5643 91.7547 50.4339V53.3324C91.7547 53.9122 92.7593 54.7817 93.4291 54.7817Z" fill="#5F138D"/>
<path fill-rule="evenodd" clip-rule="evenodd" d="M93.4291 62.6079H96.7778C97.7824 62.6079 98.4521 62.0282 98.4521 61.1586V58.2601C98.4521 57.3905 97.7824 56.8108 96.7778 56.8108H93.4291C92.4244 56.8108 91.7547 57.3905 91.7547 58.2601V61.1586C91.7547 62.0282 92.7593 62.6079 93.4291 62.6079Z" fill="#5F138D"/>
<path fill-rule="evenodd" clip-rule="evenodd" d="M93.4291 70.7241H96.7778C97.7824 70.7241 98.4521 70.1444 98.4521 69.2748V66.3763C98.4521 65.5067 97.7824 64.927 96.7778 64.927H93.4291C92.4244 64.927 91.7547 65.5067 91.7547 66.3763V69.2748C91.7547 70.1444 92.7593 70.7241 93.4291 70.7241Z" fill="#5F138D"/>
<path fill-rule="evenodd" clip-rule="evenodd" d="M93.4291 78.8398H96.7778C97.7824 78.8398 98.4521 78.2601 98.4521 77.3906V74.492C98.4521 73.6224 97.7824 73.0427 96.7778 73.0427H93.4291C92.4244 73.0427 91.7547 73.6224 91.7547 74.492V77.3906C91.7547 78.2601 92.7593 78.8398 93.4291 78.8398Z" fill="#5F138D"/>
<path fill-rule="evenodd" clip-rule="evenodd" d="M84.388 6.08616H87.7368C88.7414 6.08616 89.4111 5.50645 89.4111 4.63689V1.73834C89.4111 0.868773 88.7414 0.289063 87.7368 0.289063H84.388C83.3834 0.289063 82.7137 0.868773 82.7137 1.73834V4.63689C82.7137 5.2166 83.3834 6.08616 84.388 6.08616Z" fill="#5F138D"/>
<path fill-rule="evenodd" clip-rule="evenodd" d="M84.388 14.2021H87.7368C88.7414 14.2021 89.4111 13.6224 89.4111 12.7529V9.8543C89.4111 8.98474 88.7414 8.40503 87.7368 8.40503H84.388C83.3834 8.40503 82.7137 8.98474 82.7137 9.8543V12.7529C82.7137 13.3326 83.3834 14.2021 84.388 14.2021Z" fill="#5F138D"/>
<path fill-rule="evenodd" clip-rule="evenodd" d="M84.388 22.3183H87.7368C88.7414 22.3183 89.4111 21.7386 89.4111 20.8691V17.9705C89.4111 17.1009 88.7414 16.5212 87.7368 16.5212H84.388C83.3834 16.5212 82.7137 17.1009 82.7137 17.9705V20.8691C82.7137 21.4488 83.3834 22.3183 84.388 22.3183Z" fill="#5F138D"/>
<path fill-rule="evenodd" clip-rule="evenodd" d="M84.388 30.4341H87.7368C88.7414 30.4341 89.4111 29.8544 89.4111 28.9848V26.0862C89.4111 25.2167 88.7414 24.637 87.7368 24.637H84.388C83.3834 24.637 82.7137 25.2167 82.7137 26.0862V28.9848C82.7137 29.5645 83.3834 30.4341 84.388 30.4341Z" fill="#5F138D"/>
<path fill-rule="evenodd" clip-rule="evenodd" d="M84.388 38.55H87.7368C88.7414 38.55 89.4111 37.9703 89.4111 37.1008V34.2022C89.4111 33.3326 88.7414 32.7529 87.7368 32.7529H84.388C83.3834 32.7529 82.7137 33.3326 82.7137 34.2022V37.1008C82.7137 37.6805 83.3834 38.55 84.388 38.55Z" fill="#5F138D"/>
<path fill-rule="evenodd" clip-rule="evenodd" d="M84.388 46.666H87.7368C88.7414 46.666 89.4111 46.0863 89.4111 45.2167V42.3182C89.4111 41.4486 88.7414 40.8689 87.7368 40.8689H84.388C83.3834 40.8689 82.7137 41.4486 82.7137 42.3182V45.2167C82.7137 45.7964 83.3834 46.666 84.388 46.666Z" fill="#5F138D"/>
<path fill-rule="evenodd" clip-rule="evenodd" d="M84.388 54.7818H87.7368C88.7414 54.7818 89.4111 54.2021 89.4111 53.3326V50.434C89.4111 49.5645 88.7414 48.9847 87.7368 48.9847H84.388C83.3834 48.9847 82.7137 49.5645 82.7137 50.434V53.3326C82.7137 53.9123 83.3834 54.7818 84.388 54.7818Z" fill="#5F138D"/>
<path fill-rule="evenodd" clip-rule="evenodd" d="M84.388 62.6079H87.7368C88.7414 62.6079 89.4111 62.0282 89.4111 61.1586V58.2601C89.4111 57.3905 88.7414 56.8108 87.7368 56.8108H84.388C83.3834 56.8108 82.7137 57.3905 82.7137 58.2601V61.1586C82.7137 62.0282 83.3834 62.6079 84.388 62.6079Z" fill="#5F138D"/>
<path fill-rule="evenodd" clip-rule="evenodd" d="M84.388 70.7241H87.7368C88.7414 70.7241 89.4111 70.1444 89.4111 69.2748V66.3763C89.4111 65.5067 88.7414 64.927 87.7368 64.927H84.388C83.3834 64.927 82.7137 65.5067 82.7137 66.3763V69.2748C82.7137 70.1444 83.3834 70.7241 84.388 70.7241Z" fill="#5F138D"/>
<path fill-rule="evenodd" clip-rule="evenodd" d="M84.388 78.8398H87.7368C88.7414 78.8398 89.4111 78.2601 89.4111 77.3906V74.492C89.4111 73.6224 88.7414 73.0427 87.7368 73.0427H84.388C83.3834 73.0427 82.7137 73.6224 82.7137 74.492V77.3906C82.7137 78.2601 83.3834 78.8398 84.388 78.8398Z" fill="#5F138D"/>
<path fill-rule="evenodd" clip-rule="evenodd" d="M75.0111 6.08616H78.3598C79.3644 6.08616 80.0342 5.50645 80.0342 4.63689V1.73834C80.0342 0.868773 79.3644 0.289063 78.3598 0.289063H75.0111C74.0065 0.289063 73.3367 0.868773 73.3367 1.73834V4.63689C73.3367 5.2166 74.0065 6.08616 75.0111 6.08616Z" fill="#5F138D"/>
<path fill-rule="evenodd" clip-rule="evenodd" d="M65.9701 6.08616H69.3188C70.3234 6.08616 70.9932 5.50645 70.9932 4.63689V1.73834C70.9932 0.868773 70.3234 0.289063 69.3188 0.289063H65.9701C64.9654 0.289063 64.2957 0.868773 64.2957 1.73834V4.63689C64.2957 5.2166 64.9654 6.08616 65.9701 6.08616Z" fill="#5F138D"/>
<path fill-rule="evenodd" clip-rule="evenodd" d="M47.5521 6.08616H50.9008C51.9054 6.08616 52.5752 5.50645 52.5752 4.63689V1.73834C52.5752 0.868773 51.9054 0.289063 50.9008 0.289063H47.5521C46.5475 0.289063 45.8777 0.868773 45.8777 1.73834V4.63689C45.8777 5.2166 46.5475 6.08616 47.5521 6.08616Z" fill="#5F138D"/>
<path fill-rule="evenodd" clip-rule="evenodd" d="M56.5931 14.2021H59.9418C60.9465 14.2021 61.6162 13.6224 61.6162 12.7529V9.8543C61.6162 8.98474 60.9465 8.40503 59.9418 8.40503H56.5931C55.5885 8.40503 54.9188 8.98474 54.9188 9.8543V12.7529C54.9188 13.3326 55.9234 14.2021 56.5931 14.2021Z" fill="#5F138D"/>
<path fill-rule="evenodd" clip-rule="evenodd" d="M29.1341 14.2021H32.4829C33.4875 14.2021 34.1572 13.6224 34.1572 12.7529V9.8543C34.1572 8.98474 33.4875 8.40503 32.4829 8.40503H29.1341C28.1295 8.40503 27.4598 8.98474 27.4598 9.8543V12.7529C27.4598 13.3326 28.1295 14.2021 29.1341 14.2021Z" fill="#5F138D"/>
<path fill-rule="evenodd" clip-rule="evenodd" d="M75.0111 22.3183H78.3598C79.3644 22.3183 80.0342 21.7386 80.0342 20.8691V17.9705C80.0342 17.1009 79.3644 16.5212 78.3598 16.5212H75.0111C74.0065 16.5212 73.3367 17.1009 73.3367 17.9705V20.8691C73.3367 21.4488 74.0065 22.3183 75.0111 22.3183Z" fill="#5F138D"/>
<path fill-rule="evenodd" clip-rule="evenodd" d="M65.9701 22.3183H69.3188C70.3234 22.3183 70.9932 21.7386 70.9932 20.8691V17.9705C70.9932 17.1009 70.3234 16.5212 69.3188 16.5212H65.9701C64.9654 16.5212 64.2957 17.1009 64.2957 17.9705V20.8691C64.2957 21.4488 64.9654 22.3183 65.9701 22.3183Z" fill="#5F138D"/>
<path fill-rule="evenodd" clip-rule="evenodd" d="M47.5521 22.3183H50.9008C51.9054 22.3183 52.5752 21.7386 52.5752 20.8691V17.9705C52.5752 17.1009 51.9054 16.5212 50.9008 16.5212H47.5521C46.5475 16.5212 45.8777 17.1009 45.8777 17.9705V20.8691C45.8777 21.4488 46.5475 22.3183 47.5521 22.3183Z" fill="#5F138D"/>
<path fill-rule="evenodd" clip-rule="evenodd" d="M75.0111 30.4341H78.3598C79.3644 30.4341 80.0342 29.8544 80.0342 28.9848V26.0862C80.0342 25.2167 79.3644 24.637 78.3598 24.637H75.0111C74.0065 24.637 73.3367 25.2167 73.3367 26.0862V28.9848C73.3367 29.5645 74.0065 30.4341 75.0111 30.4341Z" fill="#5F138D"/>
<path fill-rule="evenodd" clip-rule="evenodd" d="M65.9701 30.4341H69.3188C70.3234 30.4341 70.9932 29.8544 70.9932 28.9848V26.0862C70.9932 25.2167 70.3234 24.637 69.3188 24.637H65.9701C64.9654 24.637 64.2957 25.2167 64.2957 26.0862V28.9848C64.2957 29.5645 64.9654 30.4341 65.9701 30.4341Z" fill="#5F138D"/>
<path fill-rule="evenodd" clip-rule="evenodd" d="M56.5931 30.4341H59.9418C60.9465 30.4341 61.6162 29.8544 61.6162 28.9848V26.0862C61.6162 25.2167 60.9465 24.637 59.9418 24.637H56.5931C55.5885 24.637 54.9188 25.2167 54.9188 26.0862V28.9848C54.9188 29.5645 55.9234 30.4341 56.5931 30.4341Z" fill="#5F138D"/>
<path fill-rule="evenodd" clip-rule="evenodd" d="M38.5101 30.4341H41.8588C42.8635 30.4341 43.5332 29.8544 43.5332 28.9848V26.0862C43.5332 25.2167 42.8635 24.637 41.8588 24.637H38.5101C37.5055 24.637 36.8357 25.2167 36.8357 26.0862V28.9848C36.5009 29.5645 37.5055 30.4341 38.5101 30.4341Z" fill="#5F138D"/>
<path fill-rule="evenodd" clip-rule="evenodd" d="M20.0921 30.4341H23.4409C24.4455 30.4341 25.1152 29.8544 25.1152 28.9848V26.0862C25.1152 25.2167 24.4455 24.637 23.4409 24.637H20.0921C19.0875 24.637 18.4178 25.2167 18.4178 26.0862V28.9848C18.4178 29.5645 19.0875 30.4341 20.0921 30.4341Z" fill="#5F138D"/>
<path fill-rule="evenodd" clip-rule="evenodd" d="M1.67417 30.4341H5.0229C6.02752 30.4341 6.69727 29.8544 6.69727 28.9848V26.0862C6.69727 25.2167 6.02752 24.637 5.0229 24.637H1.67417C0.669555 24.637 -0.000191212 25.2167 -0.000191212 26.0862V28.9848C-0.000191212 29.5645 0.669555 30.4341 1.67417 30.4341Z" fill="#5F138D"/>
<path fill-rule="evenodd" clip-rule="evenodd" d="M75.0111 38.55H78.3598C79.3644 38.55 80.0342 37.9703 80.0342 37.1008V34.2022C80.0342 33.3326 79.3644 32.7529 78.3598 32.7529H75.0111C74.0065 32.7529 73.3367 33.3326 73.3367 34.2022V37.1008C73.3367 37.6805 74.0065 38.55 75.0111 38.55Z" fill="#5F138D"/>
<path fill-rule="evenodd" clip-rule="evenodd" d="M75.0111 46.666H78.3598C79.3644 46.666 80.0342 46.0863 80.0342 45.2167V42.3182C80.0342 41.4486 79.3644 40.8689 78.3598 40.8689H75.0111C74.0065 40.8689 73.3367 41.4486 73.3367 42.3182V45.2167C73.3367 45.7964 74.0065 46.666 75.0111 46.666Z" fill="#5F138D"/>
<path fill-rule="evenodd" clip-rule="evenodd" d="M56.5931 46.666H59.9418C60.9465 46.666 61.6162 46.0863 61.6162 45.2167V42.3182C61.6162 41.4486 60.9465 40.8689 59.9418 40.8689H56.5931C55.5885 40.8689 54.9188 41.4486 54.9188 42.3182V45.2167C54.9188 45.7964 55.9234 46.666 56.5931 46.666Z" fill="#5F138D"/>
<path fill-rule="evenodd" clip-rule="evenodd" d="M38.5101 46.666H41.8588C42.8635 46.666 43.5332 46.0863 43.5332 45.2167V42.3182C43.5332 41.4486 42.8635 40.8689 41.8588 40.8689H38.5101C37.5055 40.8689 36.8357 41.4486 36.8357 42.3182V45.2167C36.5009 45.7964 37.5055 46.666 38.5101 46.666Z" fill="#5F138D"/>
<path fill-rule="evenodd" clip-rule="evenodd" d="M20.0921 46.666H23.4409C24.4455 46.666 25.1152 46.0863 25.1152 45.2167V42.3182C25.1152 41.4486 24.4455 40.8689 23.4409 40.8689H20.0921C19.0875 40.8689 18.4178 41.4486 18.4178 42.3182V45.2167C18.4178 45.7964 19.0875 46.666 20.0921 46.666Z" fill="#5F138D"/>
<path fill-rule="evenodd" clip-rule="evenodd" d="M75.0111 54.7817H78.3598C79.3644 54.7817 80.0342 54.202 80.0342 53.3324V50.4339C80.0342 49.5643 79.3644 48.9846 78.3598 48.9846H75.0111C74.0065 48.9846 73.3367 49.5643 73.3367 50.4339V53.3324C73.3367 53.9122 74.0065 54.7817 75.0111 54.7817Z" fill="#5F138D"/>
<path fill-rule="evenodd" clip-rule="evenodd" d="M65.9701 54.7818H69.3188C70.3234 54.7818 70.9932 54.2021 70.9932 53.3326V50.434C70.9932 49.5645 70.3234 48.9847 69.3188 48.9847H65.9701C64.9654 48.9847 64.2957 49.5645 64.2957 50.434V53.3326C64.2957 53.9123 64.9654 54.7818 65.9701 54.7818Z" fill="#5F138D"/>
<path fill-rule="evenodd" clip-rule="evenodd" d="M56.5931 54.7817H59.9418C60.9465 54.7817 61.6162 54.202 61.6162 53.3324V50.4339C61.6162 49.5643 60.9465 48.9846 59.9418 48.9846H56.5931C55.5885 48.9846 54.9188 49.5643 54.9188 50.4339V53.3324C54.9188 53.9122 55.9234 54.7817 56.5931 54.7817Z" fill="#5F138D"/>
<path fill-rule="evenodd" clip-rule="evenodd" d="M47.5521 54.7817H50.9008C51.9054 54.7817 52.5752 54.202 52.5752 53.3324V50.4339C52.5752 49.5643 51.9054 48.9846 50.9008 48.9846H47.5521C46.5475 48.9846 45.8777 49.5643 45.8777 50.4339V53.3324C45.8777 53.9122 46.5475 54.7817 47.5521 54.7817Z" fill="#5F138D"/>
<path fill-rule="evenodd" clip-rule="evenodd" d="M65.9701 62.6079H69.3188C70.3234 62.6079 70.9932 62.0282 70.9932 61.1586V58.2601C70.9932 57.3905 70.3234 56.8108 69.3188 56.8108H65.9701C64.9654 56.8108 64.2957 57.3905 64.2957 58.2601V61.1586C64.2957 62.0282 64.9654 62.6079 65.9701 62.6079Z" fill="#5F138D"/>
<path fill-rule="evenodd" clip-rule="evenodd" d="M38.5101 62.6079H41.8588C42.8635 62.6079 43.5332 62.0282 43.5332 61.1586V58.2601C43.5332 57.3905 42.8635 56.8108 41.8588 56.8108H38.5101C37.5055 56.8108 36.8357 57.3905 36.8357 58.2601V61.1586C36.5009 62.0282 37.5055 62.6079 38.5101 62.6079Z" fill="#5F138D"/>
<path fill-rule="evenodd" clip-rule="evenodd" d="M1.67417 62.6079H5.0229C6.02752 62.6079 6.69727 62.0282 6.69727 61.1586V58.2601C6.69727 57.3905 6.02752 56.8108 5.0229 56.8108H1.67417C0.669555 56.8108 -0.000191212 57.3905 -0.000191212 58.2601V61.1586C-0.000191212 62.0282 0.669555 62.6079 1.67417 62.6079Z" fill="#5F138D"/>
<path fill-rule="evenodd" clip-rule="evenodd" d="M75.0111 70.7241H78.3598C79.3644 70.7241 80.0342 70.1444 80.0342 69.2748V66.3763C80.0342 65.5067 79.3644 64.927 78.3598 64.927H75.0111C74.0065 64.927 73.3367 65.5067 73.3367 66.3763V69.2748C73.3367 70.1444 74.0065 70.7241 75.0111 70.7241Z" fill="#5F138D"/>
<path fill-rule="evenodd" clip-rule="evenodd" d="M75.0111 78.8398H78.3598C79.3644 78.8398 80.0342 78.2601 80.0342 77.3906V74.492C80.0342 73.6224 79.3644 73.0427 78.3598 73.0427H75.0111C74.0065 73.0427 73.3367 73.6224 73.3367 74.492V77.3906C73.3367 78.2601 74.0065 78.8398 75.0111 78.8398Z" fill="#5F138D"/>
<path fill-rule="evenodd" clip-rule="evenodd" d="M65.9701 78.8398H69.3188C70.3234 78.8398 70.9932 78.2601 70.9932 77.3906V74.492C70.9932 73.6224 70.3234 73.0427 69.3188 73.0427H65.9701C64.9654 73.0427 64.2957 73.6224 64.2957 74.492V77.3906C63.9608 78.2601 64.9654 78.8398 65.9701 78.8398Z" fill="#5F138D"/>
<path fill-rule="evenodd" clip-rule="evenodd" d="M47.2171 78.8398H50.5659C51.5705 78.8398 52.2402 78.2601 52.2402 77.3906V74.492C52.2402 73.6224 51.5705 73.0427 50.5659 73.0427H47.2171C46.2125 73.0427 45.5428 73.6224 45.5428 74.492V77.3906C45.5428 78.2601 46.5474 78.8398 47.2171 78.8398Z" fill="#5F138D"/>
<path fill-rule="evenodd" clip-rule="evenodd" d="M28.7992 78.8398H32.1479C33.1525 78.8398 33.8223 78.2601 33.8223 77.3906V74.492C33.8223 73.6224 33.1525 73.0427 32.1479 73.0427H28.7992C27.7945 73.0427 27.1248 73.6224 27.1248 74.492V77.3906C27.1248 78.2601 27.7945 78.8398 28.7992 78.8398Z" fill="#5F138D"/>
<path fill-rule="evenodd" clip-rule="evenodd" d="M10.3812 78.8398H13.7299C14.7345 78.8398 15.4043 78.2601 15.4043 77.3906V74.492C15.4043 73.6224 14.7345 73.0427 13.7299 73.0427H10.3812C9.37658 73.0427 8.70684 73.6224 8.70684 74.492V77.3906C8.70684 78.2601 9.37658 78.8398 10.3812 78.8398Z" fill="#5F138D"/>
<path fill-rule="evenodd" clip-rule="evenodd" d="M139.642 86.9559H142.991C144.33 86.9559 145 86.3762 145 85.5066V82.6081C145 81.7385 144.33 81.1588 143.326 81.1588H139.977C138.972 81.1588 138.303 81.7385 138.303 82.6081V85.5066C137.968 86.3762 138.972 86.9559 139.642 86.9559Z" fill="#5F138D"/>
<path fill-rule="evenodd" clip-rule="evenodd" d="M139.642 95.0715H142.991C143.995 95.0715 144.665 94.4918 144.665 93.6222V90.7237C144.665 89.8541 143.995 89.2744 142.991 89.2744H139.642C138.637 89.2744 137.968 89.8541 137.968 90.7237V93.6222C137.968 94.4918 138.972 95.0715 139.642 95.0715Z" fill="#5F138D"/>
<path fill-rule="evenodd" clip-rule="evenodd" d="M139.642 103.188H142.991C143.995 103.188 144.665 102.608 144.665 101.738V98.8399C144.665 97.9703 143.995 97.3906 142.991 97.3906H139.642C138.637 97.3906 137.968 97.9703 137.968 98.8399V101.738C137.968 102.318 138.972 103.188 139.642 103.188Z" fill="#5F138D"/>
<path fill-rule="evenodd" clip-rule="evenodd" d="M139.642 111.304H142.991C143.995 111.304 144.665 110.724 144.665 109.854V106.956C144.665 106.086 143.995 105.507 142.991 105.507H139.642C138.637 105.507 137.968 106.086 137.968 106.956V109.854C137.968 110.434 138.972 111.304 139.642 111.304Z" fill="#5F138D"/>
<path fill-rule="evenodd" clip-rule="evenodd" d="M139.642 119.419H142.991C143.995 119.419 144.665 118.84 144.665 117.97V115.072C144.665 114.202 143.995 113.622 142.991 113.622H139.642C138.637 113.622 137.968 114.202 137.968 115.072V117.97C137.968 118.55 138.972 119.419 139.642 119.419Z" fill="#5F138D"/>
<path fill-rule="evenodd" clip-rule="evenodd" d="M139.642 127.535H142.991C144.33 127.535 145 126.666 145 125.796V122.898C145 122.028 144.33 121.448 143.326 121.448H139.977C138.972 121.448 138.303 122.028 138.303 122.898V125.796C137.968 126.666 138.972 127.535 139.642 127.535Z" fill="#5F138D"/>
<path fill-rule="evenodd" clip-rule="evenodd" d="M139.642 135.651H142.991C143.995 135.651 144.665 135.072 144.665 134.202V131.304C144.665 130.434 143.995 129.854 142.991 129.854H139.642C138.637 129.854 137.968 130.434 137.968 131.304V134.202C137.968 134.782 138.972 135.651 139.642 135.651Z" fill="#5F138D"/>
<path fill-rule="evenodd" clip-rule="evenodd" d="M139.642 143.767H142.991C144.33 143.767 145 142.898 145 142.028V139.13C145 138.26 144.33 137.68 143.326 137.68H139.977C138.972 137.68 138.303 138.26 138.303 139.13V142.028C137.968 142.898 138.972 143.767 139.642 143.767Z" fill="#5F138D"/>
<path fill-rule="evenodd" clip-rule="evenodd" d="M139.642 151.883H142.991C143.995 151.883 144.665 151.304 144.665 150.434V147.535C144.665 146.666 143.995 146.086 142.991 146.086H139.642C138.637 146.086 137.968 146.666 137.968 147.535V150.434C137.968 151.014 138.972 151.883 139.642 151.883Z" fill="#5F138D"/>
<path fill-rule="evenodd" clip-rule="evenodd" d="M139.642 159.999H142.991C143.995 159.999 144.665 159.42 144.665 158.55V155.652C144.665 154.782 143.995 154.202 142.991 154.202H139.642C138.637 154.202 137.968 154.782 137.968 155.652V158.55C137.968 159.13 138.972 159.999 139.642 159.999Z" fill="#5F138D"/>
<path fill-rule="evenodd" clip-rule="evenodd" d="M130.601 86.9558H133.95C134.954 86.9558 135.624 86.3761 135.624 85.5065V82.608C135.624 81.7384 134.954 81.1587 133.95 81.1587H130.601C129.596 81.1587 128.927 81.7384 128.927 82.608V85.5065C128.927 86.3761 129.596 86.9558 130.601 86.9558Z" fill="#5F138D"/>
<path fill-rule="evenodd" clip-rule="evenodd" d="M130.601 95.0715H133.95C134.954 95.0715 135.624 94.4918 135.624 93.6222V90.7237C135.624 89.8541 134.954 89.2744 133.95 89.2744H130.601C129.596 89.2744 128.927 89.8541 128.927 90.7237V93.6222C128.927 94.4918 129.596 95.0715 130.601 95.0715Z" fill="#5F138D"/>
<path fill-rule="evenodd" clip-rule="evenodd" d="M130.601 103.188H133.95C134.954 103.188 135.624 102.608 135.624 101.738V98.8399C135.624 97.9703 134.954 97.3906 133.95 97.3906H130.601C129.596 97.3906 128.927 97.9703 128.927 98.8399V101.738C128.927 102.318 129.596 103.188 130.601 103.188Z" fill="#5F138D"/>
<path fill-rule="evenodd" clip-rule="evenodd" d="M130.601 111.304H133.95C134.954 111.304 135.624 110.724 135.624 109.854V106.956C135.624 106.086 134.954 105.507 133.95 105.507H130.601C129.596 105.507 128.927 106.086 128.927 106.956V109.854C128.927 110.434 129.596 111.304 130.601 111.304Z" fill="#5F138D"/>
<path fill-rule="evenodd" clip-rule="evenodd" d="M130.601 119.419H133.95C134.954 119.419 135.624 118.84 135.624 117.97V115.072C135.624 114.202 134.954 113.622 133.95 113.622H130.601C129.596 113.622 128.927 114.202 128.927 115.072V117.97C128.927 118.55 129.596 119.419 130.601 119.419Z" fill="#5F138D"/>
<path fill-rule="evenodd" clip-rule="evenodd" d="M130.601 127.536H133.95C134.954 127.536 135.624 126.956 135.624 126.086V123.188C135.624 122.318 134.954 121.739 133.95 121.739H130.601C129.596 121.739 128.927 122.318 128.927 123.188V126.086C128.927 126.666 129.596 127.536 130.601 127.536Z" fill="#5F138D"/>
<path fill-rule="evenodd" clip-rule="evenodd" d="M130.601 135.651H133.95C134.954 135.651 135.624 135.072 135.624 134.202V131.304C135.624 130.434 134.954 129.854 133.95 129.854H130.601C129.596 129.854 128.927 130.434 128.927 131.304V134.202C128.927 134.782 129.596 135.651 130.601 135.651Z" fill="#5F138D"/>
<path fill-rule="evenodd" clip-rule="evenodd" d="M130.601 143.768H133.95C134.954 143.768 135.624 143.188 135.624 142.318V139.42C135.624 138.55 134.954 137.97 133.95 137.97H130.601C129.596 137.97 128.927 138.55 128.927 139.42V142.318C128.927 142.898 129.596 143.768 130.601 143.768Z" fill="#5F138D"/>
<path fill-rule="evenodd" clip-rule="evenodd" d="M130.601 151.883H133.95C134.954 151.883 135.624 151.304 135.624 150.434V147.535C135.624 146.666 134.954 146.086 133.95 146.086H130.601C129.596 146.086 128.927 146.666 128.927 147.535V150.434C128.927 151.014 129.596 151.883 130.601 151.883Z" fill="#5F138D"/>
<path fill-rule="evenodd" clip-rule="evenodd" d="M130.601 159.999H133.95C134.954 159.999 135.624 159.42 135.624 158.55V155.652C135.624 154.782 134.954 154.202 133.95 154.202H130.601C129.596 154.202 128.927 154.782 128.927 155.652V158.55C128.927 159.13 129.596 159.999 130.601 159.999Z" fill="#5F138D"/>
<path fill-rule="evenodd" clip-rule="evenodd" d="M121.224 86.9559H124.908C125.912 86.9559 126.582 86.3762 126.582 85.5066V82.6081C126.582 81.7385 125.912 81.1588 124.908 81.1588H121.559C120.554 81.1588 119.885 81.7385 119.885 82.6081V85.5066C119.55 86.3762 120.219 86.9559 121.224 86.9559Z" fill="#5F138D"/>
<path fill-rule="evenodd" clip-rule="evenodd" d="M121.224 95.0715H124.908C125.912 95.0715 126.582 94.4918 126.582 93.6222V90.7237C126.582 89.8541 125.912 89.2744 124.908 89.2744H121.559C120.554 89.2744 119.885 89.8541 119.885 90.7237V93.6222C119.55 94.4918 120.219 95.0715 121.224 95.0715Z" fill="#5F138D"/>
<path fill-rule="evenodd" clip-rule="evenodd" d="M121.224 103.188H124.908C125.912 103.188 126.582 102.608 126.582 101.738V98.8399C126.582 97.9703 125.912 97.3906 124.908 97.3906H121.559C120.554 97.3906 119.885 97.9703 119.885 98.8399V101.738C119.55 102.318 120.219 103.188 121.224 103.188Z" fill="#5F138D"/>
<path fill-rule="evenodd" clip-rule="evenodd" d="M121.224 111.304H124.908C125.912 111.304 126.582 110.724 126.582 109.854V106.956C126.582 106.086 125.912 105.507 124.908 105.507H121.559C120.554 105.507 119.885 106.086 119.885 106.956V109.854C119.55 110.434 120.219 111.304 121.224 111.304Z" fill="#5F138D"/>
<path fill-rule="evenodd" clip-rule="evenodd" d="M121.224 119.419H124.908C125.912 119.419 126.582 118.84 126.582 117.97V115.072C126.582 114.202 125.912 113.622 124.908 113.622H121.559C120.554 113.622 119.885 114.202 119.885 115.072V117.97C119.55 118.55 120.219 119.419 121.224 119.419Z" fill="#5F138D"/>
<path fill-rule="evenodd" clip-rule="evenodd" d="M121.224 127.536H124.908C125.912 127.536 126.582 126.956 126.582 126.086V123.188C126.582 122.318 125.912 121.739 124.908 121.739H121.559C120.554 121.739 119.885 122.318 119.885 123.188V126.086C119.55 126.666 120.219 127.536 121.224 127.536Z" fill="#5F138D"/>
<path fill-rule="evenodd" clip-rule="evenodd" d="M121.224 135.651H124.908C125.912 135.651 126.582 135.072 126.582 134.202V131.304C126.582 130.434 125.912 129.854 124.908 129.854H121.559C120.554 129.854 119.885 130.434 119.885 131.304V134.202C119.55 134.782 120.219 135.651 121.224 135.651Z" fill="#5F138D"/>
<path fill-rule="evenodd" clip-rule="evenodd" d="M121.224 143.768H124.908C125.912 143.768 126.582 143.188 126.582 142.318V139.42C126.582 138.55 125.912 137.97 124.908 137.97H121.559C120.554 137.97 119.885 138.55 119.885 139.42V142.318C119.55 142.898 120.219 143.768 121.224 143.768Z" fill="#5F138D"/>
<path fill-rule="evenodd" clip-rule="evenodd" d="M121.224 151.883H124.908C125.912 151.883 126.582 151.304 126.582 150.434V147.535C126.582 146.666 125.912 146.086 124.908 146.086H121.559C120.554 146.086 119.885 146.666 119.885 147.535V150.434C119.55 151.014 120.219 151.883 121.224 151.883Z" fill="#5F138D"/>
<path fill-rule="evenodd" clip-rule="evenodd" d="M121.224 159.999H124.908C125.912 159.999 126.582 159.42 126.582 158.55V155.652C126.582 154.782 125.912 154.202 124.908 154.202H121.559C120.554 154.202 119.885 154.782 119.885 155.652V158.55C119.55 159.13 120.219 159.999 121.224 159.999Z" fill="#5F138D"/>
<path fill-rule="evenodd" clip-rule="evenodd" d="M112.183 86.9558H115.532C116.536 86.9558 117.206 86.3761 117.206 85.5065V82.608C117.206 81.7384 116.536 81.1587 115.532 81.1587H112.183C111.178 81.1587 110.509 81.7384 110.509 82.608V85.5065C110.174 86.3761 111.178 86.9558 112.183 86.9558Z" fill="#5F138D"/>
<path fill-rule="evenodd" clip-rule="evenodd" d="M112.183 95.0715H115.532C116.536 95.0715 117.206 94.4918 117.206 93.6222V90.7237C117.206 89.8541 116.536 89.2744 115.532 89.2744H112.183C111.178 89.2744 110.509 89.8541 110.509 90.7237V93.6222C110.174 94.4918 111.178 95.0715 112.183 95.0715Z" fill="#5F138D"/>
<path fill-rule="evenodd" clip-rule="evenodd" d="M112.183 103.188H115.532C116.536 103.188 117.206 102.608 117.206 101.738V98.8399C117.206 97.9703 116.536 97.3906 115.532 97.3906H112.183C111.178 97.3906 110.509 97.9703 110.509 98.8399V101.738C110.174 102.318 111.178 103.188 112.183 103.188Z" fill="#5F138D"/>
<path fill-rule="evenodd" clip-rule="evenodd" d="M112.183 111.304H115.532C116.536 111.304 117.206 110.724 117.206 109.854V106.956C117.206 106.086 116.536 105.507 115.532 105.507H112.183C111.178 105.507 110.509 106.086 110.509 106.956V109.854C110.174 110.434 111.178 111.304 112.183 111.304Z" fill="#5F138D"/>
<path fill-rule="evenodd" clip-rule="evenodd" d="M112.183 119.419H115.532C116.536 119.419 117.206 118.84 117.206 117.97V115.072C117.206 114.202 116.536 113.622 115.532 113.622H112.183C111.178 113.622 110.509 114.202 110.509 115.072V117.97C110.174 118.55 111.178 119.419 112.183 119.419Z" fill="#5F138D"/>
<path fill-rule="evenodd" clip-rule="evenodd" d="M112.183 127.536H115.532C116.536 127.536 117.206 126.956 117.206 126.086V123.188C117.206 122.318 116.536 121.739 115.532 121.739H112.183C111.178 121.739 110.509 122.318 110.509 123.188V126.086C110.174 126.666 111.178 127.536 112.183 127.536Z" fill="#5F138D"/>
<path fill-rule="evenodd" clip-rule="evenodd" d="M112.183 135.651H115.532C116.536 135.651 117.206 135.072 117.206 134.202V131.304C117.206 130.434 116.536 129.854 115.532 129.854H112.183C111.178 129.854 110.509 130.434 110.509 131.304V134.202C110.174 134.782 111.178 135.651 112.183 135.651Z" fill="#5F138D"/>
<path fill-rule="evenodd" clip-rule="evenodd" d="M112.183 143.768H115.532C116.536 143.768 117.206 143.188 117.206 142.318V139.42C117.206 138.55 116.536 137.97 115.532 137.97H112.183C111.178 137.97 110.509 138.55 110.509 139.42V142.318C110.174 142.898 111.178 143.768 112.183 143.768Z" fill="#5F138D"/>
<path fill-rule="evenodd" clip-rule="evenodd" d="M112.183 151.883H115.532C116.536 151.883 117.206 151.304 117.206 150.434V147.535C117.206 146.666 116.536 146.086 115.532 146.086H112.183C111.178 146.086 110.509 146.666 110.509 147.535V150.434C110.174 151.014 111.178 151.883 112.183 151.883Z" fill="#5F138D"/>
<path fill-rule="evenodd" clip-rule="evenodd" d="M112.183 159.999H115.532C116.536 159.999 117.206 159.42 117.206 158.55V155.652C117.206 154.782 116.536 154.202 115.532 154.202H112.183C111.178 154.202 110.509 154.782 110.509 155.652V158.55C110.174 159.13 111.178 159.999 112.183 159.999Z" fill="#5F138D"/>
<path fill-rule="evenodd" clip-rule="evenodd" d="M102.806 86.9559H106.155C107.159 86.9559 107.829 86.3762 107.829 85.5066V82.6081C107.829 81.7385 107.159 81.1588 106.155 81.1588H102.806C101.801 81.1588 101.132 81.7385 101.132 82.6081V85.5066C101.132 86.3762 101.801 86.9559 102.806 86.9559Z" fill="#5F138D"/>
<path fill-rule="evenodd" clip-rule="evenodd" d="M102.806 95.0715H106.155C107.159 95.0715 107.829 94.4918 107.829 93.6222V90.7237C107.829 89.8541 107.159 89.2744 106.155 89.2744H102.806C101.801 89.2744 101.132 89.8541 101.132 90.7237V93.6222C101.132 94.4918 101.801 95.0715 102.806 95.0715Z" fill="#5F138D"/>
<path fill-rule="evenodd" clip-rule="evenodd" d="M102.806 103.188H106.155C107.159 103.188 107.829 102.608 107.829 101.738V98.8399C107.829 97.9703 107.159 97.3906 106.155 97.3906H102.806C101.801 97.3906 101.132 97.9703 101.132 98.8399V101.738C101.132 102.318 101.801 103.188 102.806 103.188Z" fill="#5F138D"/>
<path fill-rule="evenodd" clip-rule="evenodd" d="M102.806 111.304H106.155C107.159 111.304 107.829 110.724 107.829 109.854V106.956C107.829 106.086 107.159 105.507 106.155 105.507H102.806C101.801 105.507 101.132 106.086 101.132 106.956V109.854C101.132 110.434 101.801 111.304 102.806 111.304Z" fill="#5F138D"/>
<path fill-rule="evenodd" clip-rule="evenodd" d="M102.806 119.419H106.155C107.159 119.419 107.829 118.84 107.829 117.97V115.072C107.829 114.202 107.159 113.622 106.155 113.622H102.806C101.801 113.622 101.132 114.202 101.132 115.072V117.97C101.132 118.55 101.801 119.419 102.806 119.419Z" fill="#5F138D"/>
<path fill-rule="evenodd" clip-rule="evenodd" d="M102.806 127.536H106.155C107.159 127.536 107.829 126.956 107.829 126.086V123.188C107.829 122.318 107.159 121.739 106.155 121.739H102.806C101.801 121.739 101.132 122.318 101.132 123.188V126.086C101.132 126.666 101.801 127.536 102.806 127.536Z" fill="#5F138D"/>
<path fill-rule="evenodd" clip-rule="evenodd" d="M102.806 135.651H106.155C107.159 135.651 107.829 135.072 107.829 134.202V131.304C107.829 130.434 107.159 129.854 106.155 129.854H102.806C101.801 129.854 101.132 130.434 101.132 131.304V134.202C101.132 134.782 101.801 135.651 102.806 135.651Z" fill="#5F138D"/>
<path fill-rule="evenodd" clip-rule="evenodd" d="M102.806 143.768H106.155C107.159 143.768 107.829 143.188 107.829 142.318V139.42C107.829 138.55 107.159 137.97 106.155 137.97H102.806C101.801 137.97 101.132 138.55 101.132 139.42V142.318C101.132 142.898 101.801 143.768 102.806 143.768Z" fill="#5F138D"/>
<path fill-rule="evenodd" clip-rule="evenodd" d="M102.806 151.883H106.155C107.159 151.883 107.829 151.304 107.829 150.434V147.535C107.829 146.666 107.159 146.086 106.155 146.086H102.806C101.801 146.086 101.132 146.666 101.132 147.535V150.434C101.132 151.014 101.801 151.883 102.806 151.883Z" fill="#5F138D"/>
<path fill-rule="evenodd" clip-rule="evenodd" d="M102.806 159.999H106.155C107.159 159.999 107.829 159.42 107.829 158.55V155.652C107.829 154.782 107.159 154.202 106.155 154.202H102.806C101.801 154.202 101.132 154.782 101.132 155.652V158.55C101.132 159.13 101.801 159.999 102.806 159.999Z" fill="#5F138D"/>
<path fill-rule="evenodd" clip-rule="evenodd" d="M93.4291 86.9558H96.7778C97.7824 86.9558 98.4521 86.3761 98.4521 85.5065V82.608C98.4521 81.7384 97.7824 81.1587 96.7778 81.1587H93.4291C92.4244 81.1587 91.7547 81.7384 91.7547 82.608V85.5065C91.7547 86.3761 92.7593 86.9558 93.4291 86.9558Z" fill="#5F138D"/>
<path fill-rule="evenodd" clip-rule="evenodd" d="M93.4291 95.0715H96.7778C97.7824 95.0715 98.4521 94.4918 98.4521 93.6222V90.7237C98.4521 89.8541 97.7824 89.2744 96.7778 89.2744H93.4291C92.4244 89.2744 91.7547 89.8541 91.7547 90.7237V93.6222C91.7547 94.4918 92.7593 95.0715 93.4291 95.0715Z" fill="#5F138D"/>
<path fill-rule="evenodd" clip-rule="evenodd" d="M93.4291 103.188H96.7778C97.7824 103.188 98.4521 102.608 98.4521 101.738V98.8399C98.4521 97.9703 97.7824 97.3906 96.7778 97.3906H93.4291C92.4244 97.3906 91.7547 97.9703 91.7547 98.8399V101.738C91.7547 102.318 92.7593 103.188 93.4291 103.188Z" fill="#5F138D"/>
<path fill-rule="evenodd" clip-rule="evenodd" d="M93.4291 111.304H96.7778C97.7824 111.304 98.4521 110.724 98.4521 109.854V106.956C98.4521 106.086 97.7824 105.507 96.7778 105.507H93.4291C92.4244 105.507 91.7547 106.086 91.7547 106.956V109.854C91.7547 110.434 92.7593 111.304 93.4291 111.304Z" fill="#5F138D"/>
<path fill-rule="evenodd" clip-rule="evenodd" d="M93.4291 119.419H96.7778C97.7824 119.419 98.4521 118.84 98.4521 117.97V115.072C98.4521 114.202 97.7824 113.622 96.7778 113.622H93.4291C92.4244 113.622 91.7547 114.202 91.7547 115.072V117.97C91.7547 118.55 92.7593 119.419 93.4291 119.419Z" fill="#5F138D"/>
<path fill-rule="evenodd" clip-rule="evenodd" d="M93.4291 127.536H96.7778C97.7824 127.536 98.4521 126.956 98.4521 126.086V123.188C98.4521 122.318 97.7824 121.739 96.7778 121.739H93.4291C92.4244 121.739 91.7547 122.318 91.7547 123.188V126.086C91.7547 126.666 92.7593 127.536 93.4291 127.536Z" fill="#5F138D"/>
<path fill-rule="evenodd" clip-rule="evenodd" d="M93.4291 135.651H96.7778C97.7824 135.651 98.4521 135.072 98.4521 134.202V131.304C98.4521 130.434 97.7824 129.854 96.7778 129.854H93.4291C92.4244 129.854 91.7547 130.434 91.7547 131.304V134.202C91.7547 134.782 92.7593 135.651 93.4291 135.651Z" fill="#5F138D"/>
<path fill-rule="evenodd" clip-rule="evenodd" d="M93.4291 143.768H96.7778C97.7824 143.768 98.4521 143.188 98.4521 142.318V139.42C98.4521 138.55 97.7824 137.97 96.7778 137.97H93.4291C92.4244 137.97 91.7547 138.55 91.7547 139.42V142.318C91.7547 142.898 92.7593 143.768 93.4291 143.768Z" fill="#5F138D"/>
<path fill-rule="evenodd" clip-rule="evenodd" d="M93.4291 151.883H96.7778C97.7824 151.883 98.4521 151.304 98.4521 150.434V147.535C98.4521 146.666 97.7824 146.086 96.7778 146.086H93.4291C92.4244 146.086 91.7547 146.666 91.7547 147.535V150.434C91.7547 151.014 92.7593 151.883 93.4291 151.883Z" fill="#5F138D"/>
<path fill-rule="evenodd" clip-rule="evenodd" d="M93.4291 159.999H96.7778C97.7824 159.999 98.4521 159.42 98.4521 158.55V155.652C98.4521 154.782 97.7824 154.202 96.7778 154.202H93.4291C92.4244 154.202 91.7547 154.782 91.7547 155.652V158.55C91.7547 159.13 92.7593 159.999 93.4291 159.999Z" fill="#5F138D"/>
<path fill-rule="evenodd" clip-rule="evenodd" d="M84.388 86.9559H87.7368C88.7414 86.9559 89.4111 86.3762 89.4111 85.5066V82.6081C89.4111 81.7385 88.7414 81.1588 87.7368 81.1588H84.388C83.3834 81.1588 82.7137 81.7385 82.7137 82.6081V85.5066C82.7137 86.3762 83.3834 86.9559 84.388 86.9559Z" fill="#5F138D"/>
<path fill-rule="evenodd" clip-rule="evenodd" d="M84.388 95.0715H87.7368C88.7414 95.0715 89.4111 94.4918 89.4111 93.6222V90.7237C89.4111 89.8541 88.7414 89.2744 87.7368 89.2744H84.388C83.3834 89.2744 82.7137 89.8541 82.7137 90.7237V93.6222C82.7137 94.4918 83.3834 95.0715 84.388 95.0715Z" fill="#5F138D"/>
<path fill-rule="evenodd" clip-rule="evenodd" d="M84.388 103.188H87.7368C88.7414 103.188 89.4111 102.608 89.4111 101.738V98.8399C89.4111 97.9703 88.7414 97.3906 87.7368 97.3906H84.388C83.3834 97.3906 82.7137 97.9703 82.7137 98.8399V101.738C82.7137 102.318 83.3834 103.188 84.388 103.188Z" fill="#5F138D"/>
<path fill-rule="evenodd" clip-rule="evenodd" d="M84.388 111.304H87.7368C88.7414 111.304 89.4111 110.724 89.4111 109.854V106.956C89.4111 106.086 88.7414 105.507 87.7368 105.507H84.388C83.3834 105.507 82.7137 106.086 82.7137 106.956V109.854C82.7137 110.434 83.3834 111.304 84.388 111.304Z" fill="#5F138D"/>
<path fill-rule="evenodd" clip-rule="evenodd" d="M84.388 119.419H87.7368C88.7414 119.419 89.4111 118.84 89.4111 117.97V115.072C89.4111 114.202 88.7414 113.622 87.7368 113.622H84.388C83.3834 113.622 82.7137 114.202 82.7137 115.072V117.97C82.7137 118.55 83.3834 119.419 84.388 119.419Z" fill="#5F138D"/>
<path fill-rule="evenodd" clip-rule="evenodd" d="M84.388 127.536H87.7368C88.7414 127.536 89.4111 126.956 89.4111 126.086V123.188C89.4111 122.318 88.7414 121.739 87.7368 121.739H84.388C83.3834 121.739 82.7137 122.318 82.7137 123.188V126.086C82.7137 126.666 83.3834 127.536 84.388 127.536Z" fill="#5F138D"/>
<path fill-rule="evenodd" clip-rule="evenodd" d="M84.388 135.651H87.7368C88.7414 135.651 89.4111 135.072 89.4111 134.202V131.304C89.4111 130.434 88.7414 129.854 87.7368 129.854H84.388C83.3834 129.854 82.7137 130.434 82.7137 131.304V134.202C82.7137 134.782 83.3834 135.651 84.388 135.651Z" fill="#5F138D"/>
<path fill-rule="evenodd" clip-rule="evenodd" d="M84.388 143.768H87.7368C88.7414 143.768 89.4111 143.188 89.4111 142.318V139.42C89.4111 138.55 88.7414 137.97 87.7368 137.97H84.388C83.3834 137.97 82.7137 138.55 82.7137 139.42V142.318C82.7137 142.898 83.3834 143.768 84.388 143.768Z" fill="#5F138D"/>
<path fill-rule="evenodd" clip-rule="evenodd" d="M84.388 151.883H87.7368C88.7414 151.883 89.4111 151.304 89.4111 150.434V147.535C89.4111 146.666 88.7414 146.086 87.7368 146.086H84.388C83.3834 146.086 82.7137 146.666 82.7137 147.535V150.434C82.7137 151.014 83.3834 151.883 84.388 151.883Z" fill="#5F138D"/>
<path fill-rule="evenodd" clip-rule="evenodd" d="M84.388 159.999H87.7368C88.7414 159.999 89.4111 159.42 89.4111 158.55V155.652C89.4111 154.782 88.7414 154.202 87.7368 154.202H84.388C83.3834 154.202 82.7137 154.782 82.7137 155.652V158.55C82.7137 159.13 83.3834 159.999 84.388 159.999Z" fill="#5F138D"/>
<path fill-rule="evenodd" clip-rule="evenodd" d="M75.0111 86.9558H78.3598C79.3644 86.9558 80.0342 86.3761 80.0342 85.5065V82.608C80.0342 81.7384 79.3644 81.1587 78.3598 81.1587H75.0111C74.0065 81.1587 73.3367 81.7384 73.3367 82.608V85.5065C73.3367 86.3761 74.0065 86.9558 75.0111 86.9558Z" fill="#5F138D"/>
<path fill-rule="evenodd" clip-rule="evenodd" d="M65.9701 86.9559H69.3188C70.3234 86.9559 70.9932 86.3762 70.9932 85.5066V82.6081C70.9932 81.7385 70.3234 81.1588 69.3188 81.1588H65.9701C64.9654 81.1588 64.2957 81.7385 64.2957 82.6081V85.5066C64.2957 86.3762 64.9654 86.9559 65.9701 86.9559Z" fill="#5F138D"/>
<path fill-rule="evenodd" clip-rule="evenodd" d="M47.5521 86.9558H50.9008C51.9054 86.9558 52.5752 86.3761 52.5752 85.5065V82.608C52.5752 81.7384 51.9054 81.1587 50.9008 81.1587H47.5521C46.5475 81.1587 45.8777 81.7384 45.8777 82.608V85.5065C45.8777 86.3761 46.5475 86.9558 47.5521 86.9558Z" fill="#5F138D"/>
<path fill-rule="evenodd" clip-rule="evenodd" d="M56.5931 95.0715H59.9418C60.9465 95.0715 61.6162 94.4918 61.6162 93.6222V90.7237C61.6162 89.8541 60.9465 89.2744 59.9418 89.2744H56.5931C55.5885 89.2744 54.9188 89.8541 54.9188 90.7237V93.6222C54.9188 94.4918 55.9234 95.0715 56.5931 95.0715Z" fill="#5F138D"/>
<path fill-rule="evenodd" clip-rule="evenodd" d="M29.1341 95.0715H32.4829C33.4875 95.0715 34.1572 94.4918 34.1572 93.6222V90.7237C34.1572 89.8541 33.4875 89.2744 32.4829 89.2744H29.1341C28.1295 89.2744 27.4598 89.8541 27.4598 90.7237V93.6222C27.4598 94.4918 28.1295 95.0715 29.1341 95.0715Z" fill="#5F138D"/>
<path fill-rule="evenodd" clip-rule="evenodd" d="M75.0111 103.188H78.3598C79.3644 103.188 80.0342 102.608 80.0342 101.738V98.8399C80.0342 97.9703 79.3644 97.3906 78.3598 97.3906H75.0111C74.0065 97.3906 73.3367 97.9703 73.3367 98.8399V101.738C73.3367 102.318 74.0065 103.188 75.0111 103.188Z" fill="#5F138D"/>
<path fill-rule="evenodd" clip-rule="evenodd" d="M65.9701 103.188H69.3188C70.3234 103.188 70.9932 102.608 70.9932 101.738V98.8399C70.9932 97.9703 70.3234 97.3906 69.3188 97.3906H65.9701C64.9654 97.3906 64.2957 97.9703 64.2957 98.8399V101.738C64.2957 102.318 64.9654 103.188 65.9701 103.188Z" fill="#5F138D"/>
<path fill-rule="evenodd" clip-rule="evenodd" d="M47.5521 103.188H50.9008C51.9054 103.188 52.5752 102.608 52.5752 101.738V98.8399C52.5752 97.9703 51.9054 97.3906 50.9008 97.3906H47.5521C46.5475 97.3906 45.8777 97.9703 45.8777 98.8399V101.738C45.8777 102.318 46.5475 103.188 47.5521 103.188Z" fill="#5F138D"/>
<path fill-rule="evenodd" clip-rule="evenodd" d="M75.0111 111.304H78.3598C79.3644 111.304 80.0342 110.724 80.0342 109.854V106.956C80.0342 106.086 79.3644 105.507 78.3598 105.507H75.0111C74.0065 105.507 73.3367 106.086 73.3367 106.956V109.854C73.3367 110.434 74.0065 111.304 75.0111 111.304Z" fill="#5F138D"/>
<path fill-rule="evenodd" clip-rule="evenodd" d="M65.9701 111.304H69.3188C70.3234 111.304 70.9932 110.724 70.9932 109.854V106.956C70.9932 106.086 70.3234 105.507 69.3188 105.507H65.9701C64.9654 105.507 64.2957 106.086 64.2957 106.956V109.854C64.2957 110.434 64.9654 111.304 65.9701 111.304Z" fill="#5F138D"/>
<path fill-rule="evenodd" clip-rule="evenodd" d="M56.5931 111.304H59.9418C60.9465 111.304 61.6162 110.724 61.6162 109.854V106.956C61.6162 106.086 60.9465 105.507 59.9418 105.507H56.5931C55.5885 105.507 54.9188 106.086 54.9188 106.956V109.854C54.9188 110.434 55.9234 111.304 56.5931 111.304Z" fill="#5F138D"/>
<path fill-rule="evenodd" clip-rule="evenodd" d="M38.5101 111.304H41.8588C42.8635 111.304 43.5332 110.724 43.5332 109.854V106.956C43.5332 106.086 42.8635 105.507 41.8588 105.507H38.5101C37.5055 105.507 36.8357 106.086 36.8357 106.956V109.854C36.5009 110.434 37.5055 111.304 38.5101 111.304Z" fill="#5F138D"/>
<path fill-rule="evenodd" clip-rule="evenodd" d="M20.0921 111.304H23.4409C24.4455 111.304 25.1152 110.724 25.1152 109.854V106.956C25.1152 106.086 24.4455 105.507 23.4409 105.507H20.0921C19.0875 105.507 18.4178 106.086 18.4178 106.956V109.854C18.4178 110.434 19.0875 111.304 20.0921 111.304Z" fill="#5F138D"/>
<path fill-rule="evenodd" clip-rule="evenodd" d="M1.67417 111.304H5.0229C6.02752 111.304 6.69727 110.724 6.69727 109.854V106.956C6.69727 106.086 6.02752 105.507 5.0229 105.507H1.67417C0.669555 105.507 -0.000191212 106.086 -0.000191212 106.956V109.854C-0.000191212 110.434 0.669555 111.304 1.67417 111.304Z" fill="#5F138D"/>
<path fill-rule="evenodd" clip-rule="evenodd" d="M75.0111 119.419H78.3598C79.3644 119.419 80.0342 118.84 80.0342 117.97V115.072C80.0342 114.202 79.3644 113.622 78.3598 113.622H75.0111C74.0065 113.622 73.3367 114.202 73.3367 115.072V117.97C73.3367 118.55 74.0065 119.419 75.0111 119.419Z" fill="#5F138D"/>
<path fill-rule="evenodd" clip-rule="evenodd" d="M75.0111 127.536H78.3598C79.3644 127.536 80.0342 126.956 80.0342 126.086V123.188C80.0342 122.318 79.3644 121.739 78.3598 121.739H75.0111C74.0065 121.739 73.3367 122.318 73.3367 123.188V126.086C73.3367 126.666 74.0065 127.536 75.0111 127.536Z" fill="#5F138D"/>
<path fill-rule="evenodd" clip-rule="evenodd" d="M56.5931 127.536H59.9418C60.9465 127.536 61.6162 126.956 61.6162 126.086V123.188C61.6162 122.318 60.9465 121.739 59.9418 121.739H56.5931C55.5885 121.739 54.9188 122.318 54.9188 123.188V126.086C54.9188 126.666 55.9234 127.536 56.5931 127.536Z" fill="#5F138D"/>
<path fill-rule="evenodd" clip-rule="evenodd" d="M38.5101 127.536H41.8588C42.8635 127.536 43.5332 126.956 43.5332 126.086V123.188C43.5332 122.318 42.8635 121.739 41.8588 121.739H38.5101C37.5055 121.739 36.8357 122.318 36.8357 123.188V126.086C36.5009 126.666 37.5055 127.536 38.5101 127.536Z" fill="#5F138D"/>
<path fill-rule="evenodd" clip-rule="evenodd" d="M20.0921 127.536H23.4409C24.4455 127.536 25.1152 126.956 25.1152 126.086V123.188C25.1152 122.318 24.4455 121.739 23.4409 121.739H20.0921C19.0875 121.739 18.4178 122.318 18.4178 123.188V126.086C18.4178 126.666 19.0875 127.536 20.0921 127.536Z" fill="#5F138D"/>
<path fill-rule="evenodd" clip-rule="evenodd" d="M75.0111 135.651H78.3598C79.3644 135.651 80.0342 135.072 80.0342 134.202V131.304C80.0342 130.434 79.3644 129.854 78.3598 129.854H75.0111C74.0065 129.854 73.3367 130.434 73.3367 131.304V134.202C73.3367 134.782 74.0065 135.651 75.0111 135.651Z" fill="#5F138D"/>
<path fill-rule="evenodd" clip-rule="evenodd" d="M65.9701 135.651H69.3188C70.3234 135.651 70.9932 135.072 70.9932 134.202V131.304C70.9932 130.434 70.3234 129.854 69.3188 129.854H65.9701C64.9654 129.854 64.2957 130.434 64.2957 131.304V134.202C64.2957 134.782 64.9654 135.651 65.9701 135.651Z" fill="#5F138D"/>
<path fill-rule="evenodd" clip-rule="evenodd" d="M56.5931 135.651H59.9418C60.9465 135.651 61.6162 135.072 61.6162 134.202V131.304C61.6162 130.434 60.9465 129.854 59.9418 129.854H56.5931C55.5885 129.854 54.9188 130.434 54.9188 131.304V134.202C54.9188 134.782 55.9234 135.651 56.5931 135.651Z" fill="#5F138D"/>
<path fill-rule="evenodd" clip-rule="evenodd" d="M47.5521 135.651H50.9008C51.9054 135.651 52.5752 135.072 52.5752 134.202V131.304C52.5752 130.434 51.9054 129.854 50.9008 129.854H47.5521C46.5475 129.854 45.8777 130.434 45.8777 131.304V134.202C45.8777 134.782 46.5475 135.651 47.5521 135.651Z" fill="#5F138D"/>
<path fill-rule="evenodd" clip-rule="evenodd" d="M65.9701 143.768H69.3188C70.3234 143.768 70.9932 143.188 70.9932 142.318V139.42C70.9932 138.55 70.3234 137.97 69.3188 137.97H65.9701C64.9654 137.97 64.2957 138.55 64.2957 139.42V142.318C64.2957 142.898 64.9654 143.768 65.9701 143.768Z" fill="#5F138D"/>
<path fill-rule="evenodd" clip-rule="evenodd" d="M38.5101 143.768H41.8588C42.8635 143.768 43.5332 143.188 43.5332 142.318V139.42C43.5332 138.55 42.8635 137.97 41.8588 137.97H38.5101C37.5055 137.97 36.8357 138.55 36.8357 139.42V142.318C36.5009 142.898 37.5055 143.768 38.5101 143.768Z" fill="#5F138D"/>
<path fill-rule="evenodd" clip-rule="evenodd" d="M1.67417 143.768H5.0229C6.02752 143.768 6.69727 143.188 6.69727 142.318V139.42C6.69727 138.55 6.02752 137.97 5.0229 137.97H1.67417C0.669555 137.97 -0.000191212 138.55 -0.000191212 139.42V142.318C-0.000191212 142.898 0.669555 143.768 1.67417 143.768Z" fill="#5F138D"/>
<path fill-rule="evenodd" clip-rule="evenodd" d="M75.0111 151.883H78.3598C79.3644 151.883 80.0342 151.304 80.0342 150.434V147.535C80.0342 146.666 79.3644 146.086 78.3598 146.086H75.0111C74.0065 146.086 73.3367 146.666 73.3367 147.535V150.434C73.3367 151.014 74.0065 151.883 75.0111 151.883Z" fill="#5F138D"/>
<path fill-rule="evenodd" clip-rule="evenodd" d="M75.0111 159.999H78.3598C79.3644 159.999 80.0342 159.42 80.0342 158.55V155.652C80.0342 154.782 79.3644 154.202 78.3598 154.202H75.0111C74.0065 154.202 73.3367 154.782 73.3367 155.652V158.55C73.3367 159.13 74.0065 159.999 75.0111 159.999Z" fill="#5F138D"/>
<path fill-rule="evenodd" clip-rule="evenodd" d="M65.9701 159.999H69.3188C70.3234 159.999 70.9932 159.42 70.9932 158.55V155.652C70.9932 154.782 70.3234 154.202 69.3188 154.202H65.9701C64.9654 154.202 64.2957 154.782 64.2957 155.652V158.55C63.9608 159.13 64.9654 159.999 65.9701 159.999Z" fill="#5F138D"/>
<path fill-rule="evenodd" clip-rule="evenodd" d="M47.2171 159.999H50.5659C51.5705 159.999 52.2402 159.42 52.2402 158.55V155.652C52.2402 154.782 51.5705 154.202 50.5659 154.202H47.2171C46.2125 154.202 45.5428 154.782 45.5428 155.652V158.55C45.5428 159.13 46.5474 159.999 47.2171 159.999Z" fill="#5F138D"/>
<path fill-rule="evenodd" clip-rule="evenodd" d="M28.7992 159.999H32.1479C33.1525 159.999 33.8223 159.42 33.8223 158.55V155.652C33.8223 154.782 33.1525 154.202 32.1479 154.202H28.7992C27.7945 154.202 27.1248 154.782 27.1248 155.652V158.55C27.1248 159.13 27.7945 159.999 28.7992 159.999Z" fill="#5F138D"/>
<path fill-rule="evenodd" clip-rule="evenodd" d="M10.3812 159.999H13.7299C14.7345 159.999 15.4043 159.42 15.4043 158.55V155.652C15.4043 154.782 14.7345 154.202 13.7299 154.202H10.3812C9.37658 154.202 8.70684 154.782 8.70684 155.652V158.55C8.70684 159.13 9.37658 159.999 10.3812 159.999Z" fill="#5F138D"/>
</g>
</svg>
