<svg width="163" height="49" viewBox="0 0 163 49" fill="none" xmlns="http://www.w3.org/2000/svg">
<g id="Group">
<g id="Group_2">
<path id="Vector" d="M149.599 0.228672H13.408C12.9115 0.228672 12.421 0.228672 11.9259 0.231072C11.5115 0.233472 11.1003 0.240444 10.6819 0.246312C9.7728 0.255794 8.86589 0.326683 7.96899 0.458364C7.07336 0.592911 6.20578 0.846571 5.3956 1.21076C4.58641 1.57804 3.84704 2.05527 3.20429 2.62516C2.55817 3.19344 2.01958 3.85029 1.60923 4.57046C1.19774 5.2892 0.912419 6.0594 0.763109 6.85445C0.612379 7.64849 0.53127 8.4517 0.52051 9.25685C0.507947 9.62477 0.50662 9.99391 0.5 10.3619V38.099C0.50662 38.4716 0.507947 38.8326 0.52051 39.2053C0.531274 40.0104 0.612383 40.8135 0.763109 41.6076C0.912007 42.4031 1.19735 43.1737 1.60923 43.8927C2.01939 44.6106 2.55806 45.2648 3.20429 45.8299C3.8446 46.4023 4.58445 46.8798 5.3956 47.2443C6.20577 47.6095 7.07326 47.8647 7.96899 48.0013C8.86604 48.1319 9.77286 48.2028 10.6819 48.2134C11.1003 48.2216 11.5115 48.2263 11.9259 48.2263C12.421 48.2287 12.9115 48.2287 13.408 48.2287H149.599C150.086 48.2287 150.58 48.2287 151.067 48.2263C151.479 48.2263 151.902 48.2216 152.315 48.2134C153.222 48.2034 154.127 48.1325 155.022 48.0013C155.921 47.8637 156.792 47.6086 157.606 47.2443C158.416 46.8796 159.155 46.4021 159.795 45.8299C160.44 45.2625 160.98 44.6088 161.395 43.8927C161.804 43.1732 162.086 42.4026 162.233 41.6076C162.384 40.8134 162.468 40.0105 162.484 39.2053C162.489 38.8326 162.489 38.4716 162.489 38.099C162.5 37.663 162.5 37.2295 162.5 36.7864V11.672C162.5 11.2326 162.5 10.7966 162.489 10.3619C162.489 9.99391 162.489 9.62477 162.484 9.2568C162.468 8.45158 162.384 7.64855 162.233 6.8544C162.086 6.05981 161.803 5.28968 161.395 4.57042C160.559 3.12691 159.234 1.9519 157.606 1.21066C156.792 0.847353 155.921 0.59376 155.022 0.458256C154.127 0.325995 153.222 0.255081 152.315 0.246144C151.902 0.240288 151.479 0.233256 151.067 0.230916C150.58 0.228516 150.086 0.228516 149.599 0.228516V0.228672Z" fill="#B3B3B3"/>
<g id="Vector_2">
<path d="M11.8152 47.1821C11.402 47.1821 10.9988 47.1774 10.5889 47.1692C9.73967 47.1594 8.89242 47.094 8.05411 46.9734C7.27242 46.8543 6.51518 46.6327 5.80735 46.3158C5.10602 46.0016 4.46635 45.5896 3.91284 45.0957C3.35133 44.6075 2.88384 44.0413 2.5289 43.4195C2.17006 42.7937 1.92171 42.1229 1.79252 41.4305C1.65301 40.6864 1.57753 39.9341 1.56673 39.18C1.55813 38.9268 1.54688 38.084 1.54688 38.084V10.3576C1.54688 10.3576 1.55886 9.5277 1.5668 9.28389C1.57714 8.53096 1.65218 7.7798 1.79128 7.03694C1.9207 6.34262 2.16924 5.66988 2.52828 5.042C2.88191 4.42065 3.3468 3.85403 3.90494 3.36411C4.46245 2.86954 5.10416 2.45543 5.80669 2.13689C6.51289 1.82109 7.2687 1.60101 8.0488 1.48403C8.88987 1.36228 9.74006 1.29646 10.5922 1.28712L11.8159 1.27246H151.183L152.421 1.2877C153.266 1.29659 154.108 1.36182 154.942 1.48285C155.73 1.6013 156.493 1.82291 157.208 2.14041C158.615 2.78236 159.76 3.79798 160.483 5.04493C160.836 5.66847 161.081 6.33573 161.209 7.02405C161.349 7.77301 161.428 8.53006 161.444 9.28918C161.448 9.62909 161.448 9.9942 161.448 10.3576C161.459 10.8077 161.459 11.2361 161.459 11.668V36.7876C161.459 37.2237 161.459 37.6492 161.448 38.0782C161.448 38.4685 161.448 38.826 161.443 39.194C161.427 39.9396 161.35 40.6831 161.211 41.4187C161.085 42.1161 160.838 42.7922 160.479 43.4231C160.121 44.0381 159.657 44.5994 159.102 45.0863C158.548 45.5829 157.907 45.9973 157.204 46.3136C156.491 46.6328 155.729 46.8553 154.942 46.9734C154.103 47.0946 153.256 47.1601 152.407 47.1692C152.01 47.1774 151.594 47.1821 151.19 47.1821L149.72 47.1845L11.8152 47.1821Z" fill="#222823"/>
<path d="M11.8152 47.1821C11.402 47.1821 10.9988 47.1774 10.5889 47.1692C9.73967 47.1594 8.89242 47.094 8.05411 46.9734C7.27242 46.8543 6.51518 46.6327 5.80735 46.3158C5.10602 46.0016 4.46635 45.5896 3.91284 45.0957C3.35133 44.6075 2.88384 44.0413 2.5289 43.4195C2.17006 42.7937 1.92171 42.1229 1.79252 41.4305C1.65301 40.6864 1.57753 39.9341 1.56673 39.18C1.55813 38.9268 1.54688 38.084 1.54688 38.084V10.3576C1.54688 10.3576 1.55886 9.5277 1.5668 9.28389C1.57714 8.53096 1.65218 7.7798 1.79128 7.03694C1.9207 6.34262 2.16924 5.66988 2.52828 5.042C2.88191 4.42065 3.3468 3.85403 3.90494 3.36411C4.46245 2.86954 5.10416 2.45543 5.80669 2.13689C6.51289 1.82109 7.2687 1.60101 8.0488 1.48403C8.88987 1.36228 9.74006 1.29646 10.5922 1.28712L11.8159 1.27246H151.183L152.421 1.2877C153.266 1.29659 154.108 1.36182 154.942 1.48285C155.73 1.6013 156.493 1.82291 157.208 2.14041C158.615 2.78236 159.76 3.79798 160.483 5.04493C160.836 5.66847 161.081 6.33573 161.209 7.02405C161.349 7.77301 161.428 8.53006 161.444 9.28918C161.448 9.62909 161.448 9.9942 161.448 10.3576C161.459 10.8077 161.459 11.2361 161.459 11.668V36.7876C161.459 37.2237 161.459 37.6492 161.448 38.0782C161.448 38.4685 161.448 38.826 161.443 39.194C161.427 39.9396 161.35 40.6831 161.211 41.4187C161.085 42.1161 160.838 42.7922 160.479 43.4231C160.121 44.0381 159.657 44.5994 159.102 45.0863C158.548 45.5829 157.907 45.9973 157.204 46.3136C156.491 46.6328 155.729 46.8553 154.942 46.9734C154.103 47.0946 153.256 47.1601 152.407 47.1692C152.01 47.1774 151.594 47.1821 151.19 47.1821L149.72 47.1845L11.8152 47.1821Z" fill="black" fill-opacity="0.2"/>
<path d="M11.8152 47.1821C11.402 47.1821 10.9988 47.1774 10.5889 47.1692C9.73967 47.1594 8.89242 47.094 8.05411 46.9734C7.27242 46.8543 6.51518 46.6327 5.80735 46.3158C5.10602 46.0016 4.46635 45.5896 3.91284 45.0957C3.35133 44.6075 2.88384 44.0413 2.5289 43.4195C2.17006 42.7937 1.92171 42.1229 1.79252 41.4305C1.65301 40.6864 1.57753 39.9341 1.56673 39.18C1.55813 38.9268 1.54688 38.084 1.54688 38.084V10.3576C1.54688 10.3576 1.55886 9.5277 1.5668 9.28389C1.57714 8.53096 1.65218 7.7798 1.79128 7.03694C1.9207 6.34262 2.16924 5.66988 2.52828 5.042C2.88191 4.42065 3.3468 3.85403 3.90494 3.36411C4.46245 2.86954 5.10416 2.45543 5.80669 2.13689C6.51289 1.82109 7.2687 1.60101 8.0488 1.48403C8.88987 1.36228 9.74006 1.29646 10.5922 1.28712L11.8159 1.27246H151.183L152.421 1.2877C153.266 1.29659 154.108 1.36182 154.942 1.48285C155.73 1.6013 156.493 1.82291 157.208 2.14041C158.615 2.78236 159.76 3.79798 160.483 5.04493C160.836 5.66847 161.081 6.33573 161.209 7.02405C161.349 7.77301 161.428 8.53006 161.444 9.28918C161.448 9.62909 161.448 9.9942 161.448 10.3576C161.459 10.8077 161.459 11.2361 161.459 11.668V36.7876C161.459 37.2237 161.459 37.6492 161.448 38.0782C161.448 38.4685 161.448 38.826 161.443 39.194C161.427 39.9396 161.35 40.6831 161.211 41.4187C161.085 42.1161 160.838 42.7922 160.479 43.4231C160.121 44.0381 159.657 44.5994 159.102 45.0863C158.548 45.5829 157.907 45.9973 157.204 46.3136C156.491 46.6328 155.729 46.8553 154.942 46.9734C154.103 47.0946 153.256 47.1601 152.407 47.1692C152.01 47.1774 151.594 47.1821 151.19 47.1821L149.72 47.1845L11.8152 47.1821Z" fill="black" fill-opacity="0.2"/>
<path d="M11.8152 47.1821C11.402 47.1821 10.9988 47.1774 10.5889 47.1692C9.73967 47.1594 8.89242 47.094 8.05411 46.9734C7.27242 46.8543 6.51518 46.6327 5.80735 46.3158C5.10602 46.0016 4.46635 45.5896 3.91284 45.0957C3.35133 44.6075 2.88384 44.0413 2.5289 43.4195C2.17006 42.7937 1.92171 42.1229 1.79252 41.4305C1.65301 40.6864 1.57753 39.9341 1.56673 39.18C1.55813 38.9268 1.54688 38.084 1.54688 38.084V10.3576C1.54688 10.3576 1.55886 9.5277 1.5668 9.28389C1.57714 8.53096 1.65218 7.7798 1.79128 7.03694C1.9207 6.34262 2.16924 5.66988 2.52828 5.042C2.88191 4.42065 3.3468 3.85403 3.90494 3.36411C4.46245 2.86954 5.10416 2.45543 5.80669 2.13689C6.51289 1.82109 7.2687 1.60101 8.0488 1.48403C8.88987 1.36228 9.74006 1.29646 10.5922 1.28712L11.8159 1.27246H151.183L152.421 1.2877C153.266 1.29659 154.108 1.36182 154.942 1.48285C155.73 1.6013 156.493 1.82291 157.208 2.14041C158.615 2.78236 159.76 3.79798 160.483 5.04493C160.836 5.66847 161.081 6.33573 161.209 7.02405C161.349 7.77301 161.428 8.53006 161.444 9.28918C161.448 9.62909 161.448 9.9942 161.448 10.3576C161.459 10.8077 161.459 11.2361 161.459 11.668V36.7876C161.459 37.2237 161.459 37.6492 161.448 38.0782C161.448 38.4685 161.448 38.826 161.443 39.194C161.427 39.9396 161.35 40.6831 161.211 41.4187C161.085 42.1161 160.838 42.7922 160.479 43.4231C160.121 44.0381 159.657 44.5994 159.102 45.0863C158.548 45.5829 157.907 45.9973 157.204 46.3136C156.491 46.6328 155.729 46.8553 154.942 46.9734C154.103 47.0946 153.256 47.1601 152.407 47.1692C152.01 47.1774 151.594 47.1821 151.19 47.1821L149.72 47.1845L11.8152 47.1821Z" fill="black" fill-opacity="0.2"/>
</g>
</g>
<g id="&#60;Group&#62;">
<g id="&#60;Group&#62;_2">
<g id="&#60;Group&#62;_3">
<path id="&#60;Path&#62;" d="M39.8564 24.5893C39.8693 23.5877 40.1353 22.6057 40.6298 21.7345C41.1242 20.8634 41.8309 20.1314 42.6843 19.6068C42.1422 18.8326 41.427 18.1955 40.5956 17.746C39.7643 17.2966 38.8395 17.0472 37.8949 17.0176C35.8798 16.8061 33.9262 18.2234 32.8994 18.2234C31.8527 18.2234 30.2717 17.0386 28.5692 17.0736C27.468 17.1092 26.3948 17.4294 25.4541 18.0031C24.5135 18.5768 23.7374 19.3843 23.2017 20.3471C20.8809 24.3652 22.612 30.2704 24.8351 33.5184C25.9474 35.1088 27.2473 36.8853 28.9483 36.8223C30.6127 36.7533 31.2344 35.761 33.2436 35.761C35.2341 35.761 35.8173 36.8223 37.5528 36.7823C39.3388 36.7533 40.4641 35.1848 41.5374 33.5793C42.3365 32.4461 42.9515 31.1936 43.3595 29.8683C42.3218 29.4294 41.4363 28.6948 40.8134 27.7561C40.1904 26.8173 39.8576 25.7159 39.8564 24.5893Z" fill="white"/>
<path id="&#60;Path&#62;_2" d="M36.5775 14.8816C37.5513 13.7126 38.0311 12.21 37.9149 10.6929C36.4271 10.8491 35.0528 11.5602 34.0658 12.6844C33.5833 13.2336 33.2137 13.8725 32.9782 14.5646C32.7427 15.2568 32.6459 15.9885 32.6934 16.7181C33.4376 16.7257 34.1738 16.5644 34.8466 16.2463C35.5193 15.9282 36.1112 15.4616 36.5775 14.8816Z" fill="white"/>
</g>
</g>
<g id="Group_3">
<path id="Vector_3" d="M60.8973 32.7962H55.2172L53.8531 36.824H51.4473L56.8273 21.9224H59.3269L64.707 36.824H62.2601L60.8973 32.7962ZM55.8055 30.9376H60.3079L58.0883 24.4009H58.0262L55.8055 30.9376Z" fill="white"/>
<path id="Vector_4" d="M76.3258 31.3922C76.3258 34.7684 74.5188 36.9376 71.7918 36.9376C71.101 36.9737 70.414 36.8146 69.8095 36.4784C69.2049 36.1422 68.7073 35.6426 68.3735 35.0368H68.3219V40.418H66.0918V25.9594H68.2504V27.7665H68.2914C68.6406 27.1635 69.1467 26.6665 69.7558 26.3283C70.365 25.99 71.0544 25.8233 71.7508 25.8458C74.5082 25.8458 76.3258 28.0254 76.3258 31.3922ZM74.0336 31.3922C74.0336 29.1926 72.8969 27.7465 71.1625 27.7465C69.4586 27.7465 68.3125 29.2231 68.3125 31.3922C68.3125 33.5813 69.4586 35.0473 71.1625 35.0473C72.8969 35.0473 74.0336 33.6118 74.0336 31.3922Z" fill="white"/>
<path id="Vector_5" d="M88.2848 31.3922C88.2848 34.7684 86.4778 36.9375 83.7508 36.9375C83.06 36.9737 82.373 36.8146 81.7685 36.4784C81.1639 36.1422 80.6663 35.6426 80.3325 35.0367H80.2809V40.418H78.0508V25.9594H80.2094V27.7664H80.2504C80.5995 27.1635 81.1056 26.6665 81.7148 26.3283C82.3239 25.99 83.0134 25.8233 83.7098 25.8458C86.4672 25.8458 88.2848 28.0254 88.2848 31.3922ZM85.9926 31.3922C85.9926 29.1926 84.8559 27.7465 83.1215 27.7465C81.4176 27.7465 80.2715 29.2231 80.2715 31.3922C80.2715 33.5813 81.4176 35.0473 83.1215 35.0473C84.8559 35.0473 85.9926 33.6118 85.9926 31.3922H85.9926Z" fill="white"/>
<path id="Vector_6" d="M96.1871 32.6719C96.3524 34.1497 97.7879 35.1199 99.7496 35.1199C101.629 35.1199 102.982 34.1496 102.982 32.8172C102.982 31.6606 102.166 30.968 100.235 30.4934L98.3036 30.0281C95.5672 29.3672 94.2969 28.0875 94.2969 26.0109C94.2969 23.4398 96.5375 21.6738 99.7192 21.6738C102.868 21.6738 105.027 23.4398 105.099 26.0109H102.848C102.713 24.5238 101.484 23.6262 99.6875 23.6262C97.891 23.6262 96.6617 24.5344 96.6617 25.8563C96.6617 26.9098 97.4469 27.5297 99.3676 28.0043L101.009 28.4074C104.067 29.1304 105.337 30.3586 105.337 32.5382C105.337 35.3261 103.116 37.0722 99.5844 37.0722C96.2797 37.0722 94.0484 35.3671 93.9043 32.6718L96.1871 32.6719Z" fill="white"/>
<path id="Vector_7" d="M110.15 23.3882V25.9593H112.216V27.7253H110.15V33.7147C110.15 34.6452 110.564 35.0788 111.472 35.0788C111.718 35.0745 111.962 35.0573 112.206 35.0272V36.7827C111.798 36.859 111.383 36.8935 110.967 36.8858C108.768 36.8858 107.91 36.0596 107.91 33.9526V27.7253H106.33V25.9593H107.91V23.3882H110.15Z" fill="white"/>
<path id="Vector_8" d="M113.412 31.3921C113.412 27.9737 115.425 25.8257 118.565 25.8257C121.715 25.8257 123.719 27.9737 123.719 31.3921C123.719 34.8198 121.725 36.9585 118.565 36.9585C115.405 36.9585 113.412 34.8198 113.412 31.3921ZM121.446 31.3921C121.446 29.0472 120.372 27.6632 118.565 27.6632C116.758 27.6632 115.684 29.0577 115.684 31.3921C115.684 33.7464 116.758 35.1198 118.565 35.1198C120.372 35.1198 121.446 33.7464 121.446 31.3921H121.446Z" fill="white"/>
<path id="Vector_9" d="M125.559 25.9593H127.686V27.8085H127.737C127.881 27.231 128.219 26.7206 128.695 26.3631C129.171 26.0057 129.756 25.8229 130.35 25.8456C130.607 25.8447 130.864 25.8727 131.114 25.9288V28.0148C130.79 27.9156 130.452 27.8701 130.112 27.88C129.789 27.8669 129.466 27.924 129.166 28.0475C128.866 28.1709 128.596 28.3578 128.376 28.5953C128.155 28.8327 127.988 29.1152 127.887 29.4232C127.785 29.7312 127.752 30.0575 127.789 30.3796V36.8238H125.559L125.559 25.9593Z" fill="white"/>
<path id="Vector_10" d="M141.396 33.6327C141.096 35.605 139.175 36.9585 136.718 36.9585C133.557 36.9585 131.596 34.8409 131.596 31.4437C131.596 28.0358 133.568 25.8257 136.624 25.8257C139.63 25.8257 141.52 27.8905 141.52 31.1847V31.9487H133.847V32.0835C133.811 32.4833 133.862 32.8861 133.994 33.2651C134.126 33.6441 134.337 33.9907 134.614 34.2817C134.89 34.5728 135.225 34.8017 135.597 34.9533C135.969 35.1049 136.368 35.1756 136.77 35.1608C137.297 35.2102 137.825 35.0882 138.277 34.8128C138.729 34.5375 139.081 34.1236 139.279 33.6327L141.396 33.6327ZM133.857 30.3901H139.289C139.309 30.0306 139.255 29.6708 139.129 29.3334C139.003 28.9959 138.809 28.6881 138.559 28.4292C138.309 28.1703 138.008 27.9659 137.675 27.8288C137.342 27.6917 136.984 27.625 136.624 27.6327C136.261 27.6305 135.901 27.7003 135.565 27.838C135.229 27.9757 134.924 28.1786 134.666 28.4349C134.409 28.6913 134.205 28.9961 134.066 29.3317C133.927 29.6672 133.856 30.027 133.857 30.3901V30.3901Z" fill="white"/>
</g>
<g id="Group_4">
<path id="Vector_11" d="M55.5258 10.7059C55.9933 10.6723 56.4625 10.743 56.8994 10.9127C57.3363 11.0824 57.7302 11.347 58.0525 11.6873C58.3748 12.0277 58.6175 12.4353 58.7632 12.8808C58.9089 13.3264 58.9539 13.7987 58.8949 14.2637C58.8949 16.5512 57.6586 17.8661 55.5258 17.8661H52.9395V10.7059H55.5258ZM54.0516 16.8535H55.4016C55.7356 16.8734 56.07 16.8187 56.3802 16.6931C56.6905 16.5676 56.9688 16.3745 57.195 16.1278C57.4212 15.8811 57.5895 15.5871 57.6878 15.2671C57.786 14.9472 57.8117 14.6094 57.7629 14.2783C57.8081 13.9485 57.7799 13.6128 57.6801 13.2952C57.5804 12.9776 57.4116 12.686 57.186 12.4412C56.9603 12.1965 56.6833 12.0048 56.3748 11.8797C56.0663 11.7546 55.7339 11.6993 55.4016 11.7177H54.0516V16.8535Z" fill="white"/>
<path id="Vector_12" d="M60.1507 15.1621C60.1168 14.807 60.1574 14.4487 60.27 14.1102C60.3826 13.7717 60.5647 13.4605 60.8046 13.1965C61.0446 12.9325 61.337 12.7216 61.6632 12.5773C61.9895 12.433 62.3422 12.3584 62.699 12.3584C63.0557 12.3584 63.4085 12.433 63.7347 12.5773C64.0609 12.7216 64.3534 12.9325 64.5933 13.1965C64.8332 13.4605 65.0153 13.7717 65.128 14.1102C65.2406 14.4487 65.2812 14.807 65.2472 15.1621C65.2818 15.5175 65.2417 15.8763 65.1294 16.2153C65.0171 16.5544 64.8351 16.8661 64.5951 17.1306C64.3551 17.3951 64.0624 17.6065 63.7359 17.7511C63.4093 17.8958 63.0561 17.9705 62.699 17.9705C62.3418 17.9705 61.9886 17.8958 61.6621 17.7511C61.3355 17.6065 61.0429 17.3951 60.8029 17.1306C60.5629 16.8661 60.3809 16.5544 60.2686 16.2153C60.1562 15.8763 60.1161 15.5175 60.1507 15.1621ZM64.1503 15.1621C64.1503 13.9908 63.6242 13.3058 62.7007 13.3058C61.7738 13.3058 61.2523 13.9908 61.2523 15.1621C61.2523 16.3427 61.7738 17.0224 62.7007 17.0224C63.6242 17.0224 64.1503 16.338 64.1503 15.1621H64.1503Z" fill="white"/>
<path id="Vector_13" d="M72.0223 17.8659H70.916L69.7992 13.8862H69.7149L68.6027 17.8659H67.507L66.0176 12.4624H67.0992L68.0672 16.5856H68.1469L69.2578 12.4624H70.2809L71.3918 16.5856H71.4762L72.4395 12.4624H73.5059L72.0223 17.8659Z" fill="white"/>
<path id="Vector_14" d="M74.7578 12.4627H75.7844V13.321H75.8641C75.9993 13.0127 76.2273 12.7543 76.5163 12.5817C76.8054 12.4092 77.141 12.3311 77.4766 12.3583C77.7395 12.3386 78.0035 12.3782 78.249 12.4743C78.4945 12.5705 78.7153 12.7206 78.8949 12.9136C79.0745 13.1066 79.2084 13.3376 79.2866 13.5893C79.3649 13.8411 79.3855 14.1073 79.3469 14.3681V17.8661H78.2805V14.6359C78.2805 13.7675 77.9031 13.3357 77.1145 13.3357C76.936 13.3274 76.7578 13.3578 76.5921 13.4248C76.4264 13.4918 76.2772 13.5938 76.1546 13.7238C76.0321 13.8539 75.9391 14.0089 75.8821 14.1783C75.825 14.3476 75.8053 14.5273 75.8242 14.705V17.8662H74.7578L74.7578 12.4627Z" fill="white"/>
<path id="Vector_15" d="M81.0469 10.353H82.1133V17.8659H81.0469V10.353Z" fill="white"/>
<path id="Vector_16" d="M83.596 15.1617C83.5621 14.8065 83.6027 14.4482 83.7153 14.1097C83.828 13.7712 84.0101 13.46 84.2501 13.196C84.49 12.9321 84.7825 12.7211 85.1088 12.5768C85.435 12.4325 85.7878 12.3579 86.1445 12.3579C86.5013 12.3579 86.8541 12.4325 87.1803 12.5768C87.5066 12.7211 87.7991 12.9321 88.039 13.196C88.279 13.46 88.4611 13.7712 88.5737 14.1097C88.6864 14.4482 88.727 14.8065 88.6931 15.1617C88.7276 15.5171 88.6875 15.8759 88.5751 16.215C88.4628 16.554 88.2808 16.8658 88.0407 17.1302C87.8007 17.3947 87.508 17.6061 87.1815 17.7507C86.8549 17.8954 86.5017 17.9701 86.1445 17.9701C85.7874 17.9701 85.4342 17.8954 85.1076 17.7507C84.7811 17.6061 84.4884 17.3947 84.2483 17.1302C84.0083 16.8658 83.8263 16.554 83.714 16.215C83.6016 15.8759 83.5614 15.5171 83.596 15.1617ZM87.5956 15.1617C87.5956 13.9904 87.0694 13.3054 86.146 13.3054C85.2191 13.3054 84.6976 13.9904 84.6976 15.1617C84.6976 16.3423 85.2191 17.022 86.146 17.022C87.0694 17.022 87.5956 16.3376 87.5956 15.1617H87.5956Z" fill="white"/>
<path id="Vector_17" d="M89.8164 16.3376C89.8164 15.3649 90.5406 14.8042 91.8262 14.7245L93.2898 14.6401V14.1737C93.2898 13.603 92.9125 13.2808 92.1836 13.2808C91.5883 13.2808 91.1758 13.4993 91.0574 13.8813H90.025C90.134 12.9532 91.007 12.3579 92.2328 12.3579C93.5875 12.3579 94.3516 13.0323 94.3516 14.1737V17.8657H93.325V17.1063H93.2406C93.0694 17.3787 92.8289 17.6008 92.5437 17.7498C92.2586 17.8989 91.939 17.9696 91.6176 17.9547C91.3907 17.9783 91.1615 17.9541 90.9446 17.8837C90.7276 17.8133 90.5279 17.6982 90.3582 17.5458C90.1885 17.3934 90.0526 17.2072 89.9593 16.9991C89.866 16.791 89.8173 16.5657 89.8164 16.3376ZM93.2898 15.8759V15.4241L91.9703 15.5085C91.2262 15.5583 90.8887 15.8114 90.8887 16.2878C90.8887 16.7741 91.3105 17.0571 91.8907 17.0571C92.0606 17.0743 92.2323 17.0572 92.3955 17.0066C92.5587 16.9561 92.7101 16.8733 92.8407 16.7631C92.9712 16.6529 93.0783 16.5176 93.1554 16.3651C93.2326 16.2127 93.2783 16.0463 93.2898 15.8759Z" fill="white"/>
<path id="Vector_18" d="M95.752 15.1618C95.752 13.4544 96.6297 12.3728 97.9949 12.3728C98.3326 12.3572 98.6678 12.4381 98.9612 12.606C99.2546 12.7738 99.4942 13.0218 99.6519 13.3208H99.7316V10.353H100.798V17.8659H99.7762V17.0122H99.6918C99.5219 17.3092 99.2739 17.554 98.9748 17.7202C98.6757 17.8864 98.3369 17.9676 97.9949 17.955C96.6203 17.955 95.752 16.8734 95.752 15.1618ZM96.8536 15.1618C96.8536 16.3079 97.3938 16.9976 98.2973 16.9976C99.1961 16.9976 99.7516 16.298 99.7516 15.1665C99.7516 14.0404 99.1903 13.3308 98.2973 13.3308C97.3996 13.3308 96.8535 14.0251 96.8535 15.1618H96.8536Z" fill="white"/>
<path id="Vector_19" d="M105.211 15.1621C105.177 14.807 105.218 14.4487 105.331 14.1102C105.443 13.7717 105.625 13.4605 105.865 13.1965C106.105 12.9325 106.398 12.7216 106.724 12.5773C107.05 12.433 107.403 12.3584 107.76 12.3584C108.116 12.3584 108.469 12.433 108.795 12.5773C109.121 12.7216 109.414 12.9325 109.654 13.1965C109.894 13.4605 110.076 13.7717 110.188 14.1102C110.301 14.4487 110.342 14.807 110.308 15.1621C110.342 15.5175 110.302 15.8763 110.19 16.2153C110.078 16.5544 109.896 16.8661 109.656 17.1306C109.416 17.3951 109.123 17.6065 108.796 17.7511C108.47 17.8958 108.117 17.9705 107.76 17.9705C107.402 17.9705 107.049 17.8958 106.723 17.7511C106.396 17.6065 106.103 17.3951 105.863 17.1306C105.623 16.8661 105.441 16.5544 105.329 16.2153C105.217 15.8763 105.177 15.5175 105.211 15.1621ZM109.211 15.1621C109.211 13.9908 108.685 13.3058 107.761 13.3058C106.834 13.3058 106.313 13.9908 106.313 15.1621C106.313 16.3427 106.834 17.0224 107.761 17.0224C108.685 17.0224 109.211 16.338 109.211 15.1621Z" fill="white"/>
<path id="Vector_20" d="M111.738 12.4627H112.765V13.321H112.845C112.98 13.0127 113.208 12.7543 113.497 12.5817C113.786 12.4092 114.122 12.3311 114.457 12.3583C114.72 12.3386 114.984 12.3782 115.229 12.4743C115.475 12.5705 115.696 12.7206 115.875 12.9136C116.055 13.1066 116.189 13.3376 116.267 13.5893C116.345 13.8411 116.366 14.1073 116.327 14.3681V17.8661H115.261V14.6359C115.261 13.7675 114.884 13.3357 114.095 13.3357C113.916 13.3274 113.738 13.3578 113.573 13.4248C113.407 13.4918 113.258 13.5938 113.135 13.7238C113.013 13.8539 112.92 14.0089 112.863 14.1783C112.806 14.3476 112.786 14.5273 112.805 14.705V17.8662H111.738V12.4627Z" fill="white"/>
<path id="Vector_21" d="M122.353 11.1172V12.4871H123.524V13.3854H122.353V16.1639C122.353 16.7299 122.586 16.9777 123.117 16.9777C123.253 16.9773 123.389 16.9691 123.524 16.9531V17.8414C123.332 17.8757 123.138 17.8939 122.944 17.8959C121.758 17.8959 121.286 17.4787 121.286 16.4369V13.3853H120.428V12.4871H121.286V11.1172H122.353Z" fill="white"/>
<path id="Vector_22" d="M124.98 10.353H126.038V13.3308H126.122C126.264 13.0196 126.498 12.7597 126.793 12.5865C127.088 12.4132 127.429 12.3351 127.769 12.3628C128.031 12.3486 128.292 12.3922 128.535 12.4907C128.778 12.5891 128.996 12.7399 129.174 12.9323C129.351 13.1248 129.485 13.354 129.563 13.6038C129.642 13.8535 129.665 14.1176 129.63 14.3773V17.8659H128.563V14.6403C128.563 13.7772 128.161 13.3401 127.407 13.3401C127.224 13.3251 127.04 13.3503 126.867 13.414C126.695 13.4776 126.538 13.5782 126.409 13.7087C126.279 13.8392 126.18 13.9964 126.117 14.1694C126.055 14.3423 126.031 14.5269 126.047 14.71V17.8659H124.981L124.98 10.353Z" fill="white"/>
<path id="Vector_23" d="M135.849 16.4068C135.704 16.9007 135.39 17.3279 134.962 17.6136C134.534 17.8994 134.019 18.0256 133.507 17.9701C133.151 17.9795 132.798 17.9113 132.471 17.7703C132.144 17.6292 131.851 17.4187 131.614 17.1534C131.376 16.888 131.199 16.5741 131.095 16.2336C130.991 15.893 130.963 15.5338 131.011 15.181C130.964 14.8272 130.993 14.4673 131.097 14.1257C131.201 13.7841 131.377 13.4687 131.613 13.201C131.849 12.9334 132.14 12.7196 132.466 12.5741C132.792 12.4287 133.146 12.355 133.503 12.358C135.006 12.358 135.913 13.3852 135.913 15.082V15.4541H132.098V15.5139C132.081 15.7122 132.106 15.9118 132.171 16.0999C132.236 16.288 132.339 16.4604 132.475 16.6062C132.61 16.7519 132.775 16.8677 132.958 16.9462C133.14 17.0247 133.338 17.0641 133.537 17.0619C133.792 17.0925 134.05 17.0466 134.279 16.9299C134.508 16.8133 134.697 16.6312 134.822 16.4068L135.849 16.4068ZM132.098 14.6654H134.827C134.84 14.4841 134.816 14.3019 134.755 14.1306C134.693 13.9594 134.597 13.8028 134.472 13.671C134.347 13.5391 134.195 13.435 134.027 13.3652C133.859 13.2954 133.679 13.2615 133.497 13.2656C133.312 13.2633 133.129 13.2979 132.959 13.3675C132.788 13.437 132.632 13.54 132.502 13.6705C132.372 13.8009 132.269 13.9562 132.199 14.1271C132.13 14.2979 132.095 14.481 132.098 14.6654H132.098Z" fill="white"/>
</g>
</g>
</g>
</svg>
