<svg width="25" height="25" viewBox="0 0 25 25" fill="none" xmlns="http://www.w3.org/2000/svg">
<g id="mingcute:checkbox-fill" clip-path="url(#clip0_30500_5989)">
<g id="Group">
<path id="Vector" fill-rule="evenodd" clip-rule="evenodd" d="M5.5 3.5C4.96957 3.5 4.46086 3.71071 4.08579 4.08579C3.71071 4.46086 3.5 4.96957 3.5 5.5V19.5C3.5 20.0304 3.71071 20.5391 4.08579 20.9142C4.46086 21.2893 4.96957 21.5 5.5 21.5H19.5C20.0304 21.5 20.5391 21.2893 20.9142 20.9142C21.2893 20.5391 21.5 20.0304 21.5 19.5V5.5C21.5 4.96957 21.2893 4.46086 20.9142 4.08579C20.5391 3.71071 20.0304 3.5 19.5 3.5H5.5ZM17.45 10.296C17.6376 10.1085 17.7431 9.85412 17.7432 9.58885C17.7433 9.32358 17.638 9.06914 17.4505 8.8815C17.263 8.69386 17.0086 8.58839 16.7434 8.5883C16.4781 8.5882 16.2236 8.69349 16.036 8.881L11.086 13.831L8.965 11.71C8.87216 11.6171 8.76192 11.5434 8.64059 11.4931C8.51926 11.4428 8.3892 11.4168 8.25785 11.4168C7.99258 11.4167 7.73814 11.522 7.5505 11.7095C7.36286 11.897 7.25739 12.1514 7.2573 12.4166C7.2572 12.6819 7.36249 12.9364 7.55 13.124L10.308 15.882C10.4102 15.9842 10.5314 16.0653 10.6649 16.1206C10.7984 16.1759 10.9415 16.2044 11.086 16.2044C11.2305 16.2044 11.3736 16.1759 11.5071 16.1206C11.6406 16.0653 11.7618 15.9842 11.864 15.882L17.45 10.296Z" fill="#5C068C"/>
</g>
</g>
<defs>
<clipPath id="clip0_30500_5989">
<rect width="24" height="24" fill="white" transform="translate(0.5 0.5)"/>
</clipPath>
</defs>
</svg>
