<svg width="90" height="90" viewBox="0 0 90 90" fill="none" xmlns="http://www.w3.org/2000/svg">
<g id="face-id">
<path id="Vector" d="M26.6495 11.8838H19.2974C17.3475 11.8838 15.4775 12.6584 14.0987 14.0372C12.7199 15.416 11.9453 17.286 11.9453 19.2359V26.588M63.41 11.8838H70.7622C72.7121 11.8838 74.5821 12.6584 75.9609 14.0372C77.3397 15.416 78.1143 17.286 78.1143 19.2359V26.588M59.734 30.2641V37.6162M30.3256 30.2641V37.6162M34.0016 59.6725C34.0016 59.6725 37.6777 63.3485 45.0298 63.3485C52.3819 63.3485 56.0579 59.6725 56.0579 59.6725M45.0298 30.2641V48.6443H41.3537M26.6495 78.0527H19.2974C17.3475 78.0527 15.4775 77.2781 14.0987 75.8994C12.7199 74.5206 11.9453 72.6505 11.9453 70.7006V63.3485M63.41 78.0527H70.7622C72.7121 78.0527 74.5821 77.2781 75.9609 75.8994C77.3397 74.5206 78.1143 72.6505 78.1143 70.7006V63.3485" stroke="#5C068C" stroke-width="7.21523" stroke-linecap="round" stroke-linejoin="round"/>
</g>
</svg>
