<svg width="162" height="49" viewBox="0 0 162 49" fill="none" xmlns="http://www.w3.org/2000/svg">
<g id="Layer 2">
<g id="artwork">
<g id="Vector">
<path d="M155.999 0.228516H5.99997C2.68628 0.228516 0 2.91479 0 6.22849V42.2283C0 45.542 2.68628 48.2283 5.99997 48.2283H155.999C159.313 48.2283 161.999 45.542 161.999 42.2283V6.22849C161.999 2.91479 159.313 0.228516 155.999 0.228516Z" fill="#222823"/>
<path d="M155.999 0.228516H5.99997C2.68628 0.228516 0 2.91479 0 6.22849V42.2283C0 45.542 2.68628 48.2283 5.99997 48.2283H155.999C159.313 48.2283 161.999 45.542 161.999 42.2283V6.22849C161.999 2.91479 159.313 0.228516 155.999 0.228516Z" fill="black" fill-opacity="0.2"/>
<path d="M155.999 0.228516H5.99997C2.68628 0.228516 0 2.91479 0 6.22849V42.2283C0 45.542 2.68628 48.2283 5.99997 48.2283H155.999C159.313 48.2283 161.999 45.542 161.999 42.2283V6.22849C161.999 2.91479 159.313 0.228516 155.999 0.228516Z" fill="black" fill-opacity="0.2"/>
<path d="M155.999 0.228516H5.99997C2.68628 0.228516 0 2.91479 0 6.22849V42.2283C0 45.542 2.68628 48.2283 5.99997 48.2283H155.999C159.313 48.2283 161.999 45.542 161.999 42.2283V6.22849C161.999 2.91479 159.313 0.228516 155.999 0.228516Z" fill="black" fill-opacity="0.2"/>
</g>
<path id="Vector_2" d="M155.999 1.18827C157.335 1.18981 158.617 1.72134 159.561 2.66624C160.506 3.61114 161.038 4.89224 161.039 6.22849V42.2283C161.038 43.5645 160.506 44.8456 159.561 45.7905C158.617 46.7354 157.335 47.267 155.999 47.2685H5.99997C4.66372 47.267 3.38264 46.7355 2.43779 45.7906C1.49293 44.8457 0.961472 43.5646 0.959995 42.2283V6.22849C0.96145 4.89223 1.4929 3.61111 2.43776 2.66621C3.38262 1.72131 4.66371 1.18979 5.99997 1.18827H155.999ZM155.999 0.228516H5.99997C4.41011 0.233169 2.8867 0.866802 1.76249 1.99101C0.638286 3.11521 0.00465369 4.63863 0 6.22849L0 42.2283C0.00465369 43.8182 0.638286 45.3416 1.76249 46.4658C2.8867 47.59 4.41011 48.2236 5.99997 48.2283H155.999C157.589 48.2236 159.112 47.59 160.237 46.4658C161.361 45.3416 161.995 43.8182 161.999 42.2283V6.22849C161.995 4.63863 161.361 3.11521 160.237 1.99101C159.112 0.866802 157.589 0.233169 155.999 0.228516Z" fill="#B3B3B3"/>
<path id="Vector_3" d="M56.9011 12.5204C56.9229 12.9607 56.8549 13.4009 56.7012 13.8141C56.5474 14.2273 56.3112 14.6049 56.0069 14.9239C55.6658 15.2776 55.2539 15.5553 54.7982 15.7389C54.3424 15.9224 53.853 16.0077 53.362 15.9891C52.8678 15.9935 52.3778 15.8991 51.9207 15.7115C51.4635 15.5238 51.0485 15.2466 50.7001 14.8963C50.3516 14.5459 50.0766 14.1295 49.8914 13.6713C49.7062 13.2132 49.6144 12.7227 49.6215 12.2286C49.6145 11.7344 49.7063 11.2439 49.8915 10.7858C50.0767 10.3276 50.3517 9.91115 50.7001 9.56076C51.0486 9.21037 51.4636 8.93315 51.9207 8.7454C52.3778 8.55764 52.8678 8.46313 53.362 8.46742C53.87 8.46589 54.373 8.56861 54.8398 8.76922C55.2733 8.94495 55.6592 9.22059 55.966 9.5737L55.3331 10.2071C55.0919 9.9232 54.7888 9.69854 54.447 9.55043C54.1052 9.40231 53.734 9.33469 53.362 9.35278C52.9875 9.35084 52.6164 9.42451 52.2711 9.56936C51.9257 9.71421 51.6132 9.92727 51.3521 10.1958C51.0911 10.4643 50.8869 10.7827 50.7518 11.132C50.6167 11.4813 50.5535 11.8543 50.566 12.2286C50.5571 12.7892 50.7148 13.3399 51.0193 13.8107C51.3237 14.2816 51.7611 14.6514 52.276 14.8734C52.7909 15.0953 53.3601 15.1593 53.9115 15.0573C54.4628 14.9553 54.9715 14.6919 55.3729 14.3005C55.7424 13.9024 55.9566 13.3848 55.9764 12.842H53.362V11.9772H56.8507C56.8837 12.1564 56.9006 12.3382 56.9011 12.5204Z" fill="white" stroke="white" stroke-width="0.2" stroke-miterlimit="10"/>
<path id="Vector_4" d="M62.432 9.51317H59.1531V11.7959H62.1098V12.6609H59.1531V14.9436H62.432V15.8284H58.2285V8.62842H62.432V9.51317Z" fill="white" stroke="white" stroke-width="0.2" stroke-miterlimit="10"/>
<path id="Vector_5" d="M66.3332 15.8284H65.4074V9.51317H63.3965V8.62842H68.3442V9.51317H66.3332V15.8284Z" fill="white" stroke="white" stroke-width="0.2" stroke-miterlimit="10"/>
<path id="Vector_6" d="M71.9258 15.8284V8.62842H72.8504V15.8284H71.9258Z" fill="white" stroke="white" stroke-width="0.2" stroke-miterlimit="10"/>
<path id="Vector_7" d="M76.9542 15.8284H76.0284V9.51317H74.0176V8.62842H78.9651V9.51317H76.9542V15.8284Z" fill="white" stroke="white" stroke-width="0.2" stroke-miterlimit="10"/>
<path id="Vector_8" d="M88.331 14.8979C87.6302 15.5966 86.681 15.989 85.6914 15.989C84.7018 15.989 83.7525 15.5966 83.0517 14.8979C82.705 14.5468 82.4325 14.1295 82.2503 13.6709C82.0681 13.2123 81.98 12.7218 81.9912 12.2284C81.98 11.7351 82.0681 11.2445 82.2503 10.7859C82.4325 10.3274 82.705 9.91007 83.0517 9.55892C83.3981 9.21244 83.8094 8.93768 84.2621 8.75036C84.7149 8.56305 85.2001 8.46685 85.69 8.46729C86.1799 8.46772 86.665 8.56478 87.1173 8.7529C87.5697 8.94102 87.9805 9.21651 88.3263 9.5636C88.6732 9.91383 88.9463 10.3302 89.1293 10.7879C89.3123 11.2457 89.4015 11.7355 89.3915 12.2284C89.4024 12.7217 89.3142 13.2122 89.132 13.6707C88.9498 14.1293 88.6774 14.5466 88.331 14.8979ZM83.7349 14.2951C84.2539 14.8132 84.9574 15.1042 85.6908 15.1042C86.4242 15.1042 87.1276 14.8132 87.6466 14.2951C87.9128 14.0226 88.1209 13.6989 88.2585 13.3437C88.3961 12.9885 88.4602 12.6091 88.447 12.2284C88.4602 11.8477 88.3961 11.4683 88.2585 11.1131C88.1209 10.7579 87.9128 10.4343 87.6466 10.1618C87.1276 9.64365 86.4242 9.35263 85.6908 9.35263C84.9574 9.35263 84.2539 9.64365 83.7349 10.1618C83.4691 10.4345 83.2613 10.7582 83.1239 11.1134C82.9866 11.4685 82.9225 11.8478 82.9357 12.2284C82.9225 12.609 82.9866 12.9883 83.1239 13.3435C83.2613 13.6987 83.4691 14.0223 83.7349 14.2951Z" fill="white" stroke="white" stroke-width="0.2" stroke-miterlimit="10"/>
<path id="Vector_9" d="M90.6895 15.8284V8.62842H91.8156L95.3148 14.2294H95.3547L95.3148 12.8418V8.62842H96.2406V15.8284H95.275L91.614 9.95609H91.5742L91.614 11.3436V15.8284H90.6895Z" fill="white" stroke="white" stroke-width="0.2" stroke-miterlimit="10"/>
<path id="Vector_10" d="M81.7631 26.3306C80.7545 26.3345 79.7696 26.637 78.9328 27.2002C78.0961 27.7633 77.4449 28.5617 77.0616 29.4947C76.6783 30.4276 76.58 31.4532 76.7791 32.442C76.9782 33.4307 77.4658 34.3383 78.1804 35.0502C78.8949 35.762 79.8044 36.2462 80.7939 36.4415C81.7834 36.6369 82.8086 36.5347 83.7401 36.1478C84.6715 35.7609 85.4675 35.1067 86.0274 34.2678C86.5874 33.4289 86.8862 32.4429 86.8862 31.4343C86.8961 30.7597 86.7702 30.09 86.516 29.465C86.2618 28.8401 85.8845 28.2726 85.4065 27.7965C84.9286 27.3203 84.3597 26.9451 83.7338 26.6933C83.1078 26.4415 82.4376 26.3182 81.7631 26.3306ZM81.7631 34.5276C81.1419 34.5718 80.5218 34.4281 79.9835 34.115C79.4452 33.802 79.0136 33.3341 78.745 32.7723C78.4763 32.2105 78.383 31.5809 78.4772 30.9653C78.5714 30.3497 78.8487 29.7768 79.2731 29.3211C79.6975 28.8654 80.2493 28.548 80.8566 28.4102C81.4638 28.2724 82.0985 28.3207 82.678 28.5487C83.2575 28.7768 83.7549 29.174 84.1055 29.6886C84.456 30.2033 84.6435 30.8116 84.6435 31.4343C84.6624 31.8277 84.6023 32.2209 84.4669 32.5908C84.3315 32.9606 84.1235 33.2997 83.8551 33.5879C83.5867 33.8761 83.2633 34.1077 82.904 34.2691C82.5448 34.4305 82.1568 34.5184 81.7631 34.5276ZM70.587 26.3306C69.5784 26.3344 68.5936 26.637 67.7568 27.2001C66.92 27.7632 66.2688 28.5617 65.8855 29.4946C65.5021 30.4275 65.4038 31.4531 65.6029 32.4419C65.802 33.4307 66.2896 34.3383 67.0042 35.0501C67.7187 35.762 68.6282 36.2462 69.6177 36.4415C70.6072 36.6369 71.6324 36.5347 72.5639 36.1478C73.4954 35.7609 74.2913 35.1068 74.8513 34.2679C75.4112 33.429 75.7101 32.4429 75.7101 31.4343C75.72 30.7597 75.5941 30.09 75.3399 29.4651C75.0857 28.8401 74.7084 28.2727 74.2304 27.7965C73.7525 27.3203 73.1836 26.9452 72.5577 26.6933C71.9318 26.4415 71.2616 26.3182 70.587 26.3306ZM70.587 34.5276C69.9659 34.5718 69.3458 34.4281 68.8075 34.115C68.2692 33.802 67.8376 33.3341 67.569 32.7723C67.3003 32.2105 67.207 31.5809 67.3012 30.9653C67.3954 30.3497 67.6727 29.7768 68.0971 29.3211C68.5215 28.8654 69.0732 28.548 69.6805 28.4102C70.2878 28.2724 70.9225 28.3207 71.502 28.5487C72.0815 28.7768 72.5789 29.174 72.9294 29.6886C73.28 30.2033 73.4675 30.8116 73.4675 31.4343C73.4864 31.8277 73.4263 32.2209 73.2909 32.5908C73.1555 32.9606 72.9475 33.2997 72.6791 33.5879C72.4107 33.8761 72.0873 34.1078 71.728 34.2691C71.3687 34.4305 70.9808 34.5184 70.587 34.5276ZM57.2926 27.8966V30.0618H62.4738C62.399 31.0773 61.9834 32.0379 61.2944 32.7877C60.7752 33.3169 60.1508 33.7314 59.4615 34.0045C58.7722 34.2775 58.0333 34.403 57.2926 34.3729C55.7781 34.3524 54.3327 33.7364 53.269 32.6582C52.2053 31.58 51.609 30.1264 51.609 28.6118C51.609 27.0973 52.2053 25.6436 53.269 24.5654C54.3327 23.4873 55.7781 22.8713 57.2926 22.8508C58.7472 22.8318 60.1506 23.3875 61.1978 24.3973L62.725 22.8701C62.0105 22.1627 61.162 21.6051 60.2291 21.23C59.2963 20.8548 58.2979 20.6697 57.2926 20.6855C56.2419 20.6702 55.1988 20.8639 54.2237 21.2554C53.2486 21.6469 52.3611 22.2283 51.6128 22.9658C50.8644 23.7034 50.2701 24.5823 49.8645 25.5516C49.4589 26.5209 49.25 27.5611 49.25 28.6118C49.25 29.6625 49.4589 30.7028 49.8645 31.672C50.2701 32.6413 50.8644 33.5203 51.6128 34.2578C52.3611 34.9954 53.2486 35.5768 54.2237 35.9682C55.1988 36.3597 56.2419 36.5534 57.2926 36.5381C58.3191 36.5807 59.343 36.4045 60.2962 36.0212C61.2495 35.6379 62.1103 35.0563 62.8216 34.3149C64.0845 32.9364 64.7577 31.1184 64.697 29.2499C64.702 28.7961 64.663 28.3429 64.5808 27.8966H57.2926ZM111.662 29.5784C111.356 28.654 110.772 27.8464 109.99 27.2653C109.208 26.6843 108.267 26.3579 107.293 26.3306C106.637 26.3347 105.989 26.4717 105.388 26.7333C104.787 26.995 104.245 27.3759 103.795 27.8529C103.345 28.33 102.996 28.8933 102.77 29.5089C102.544 30.1244 102.445 30.7795 102.479 31.4343C102.465 32.1053 102.585 32.7724 102.834 33.3958C103.083 34.0191 103.455 34.586 103.928 35.0624C104.4 35.5388 104.964 35.915 105.586 36.1685C106.207 36.4221 106.873 36.5478 107.544 36.5381C108.385 36.5428 109.214 36.3386 109.956 35.9438C110.699 35.549 111.331 34.976 111.797 34.2763L110.058 33.1164C109.797 33.5492 109.428 33.9069 108.988 34.1543C108.547 34.4017 108.05 34.5303 107.544 34.5276C107.025 34.5474 106.511 34.4106 106.069 34.1349C105.628 33.8591 105.28 33.4571 105.07 32.981L111.894 30.1585L111.662 29.5784ZM104.703 31.2798C104.679 30.9083 104.729 30.5358 104.851 30.184C104.972 29.8322 105.163 29.5082 105.411 29.231C105.66 28.9537 105.961 28.7288 106.297 28.5694C106.634 28.41 106.998 28.3193 107.37 28.3026C107.758 28.2771 108.144 28.3662 108.481 28.5587C108.818 28.7512 109.09 29.0387 109.265 29.3852L104.703 31.2798ZM99.1541 36.2288H101.397V21.2269H99.1541V36.2288ZM95.4809 27.4712H95.4036C95.0627 27.1008 94.6466 26.8074 94.1832 26.6107C93.7198 26.414 93.2197 26.3185 92.7164 26.3306C91.4004 26.3866 90.1568 26.9488 89.2454 27.8998C88.334 28.8509 87.8252 30.1172 87.8252 31.4344C87.8252 32.7516 88.334 34.0179 89.2454 34.9689C90.1568 35.9199 91.4004 36.4821 92.7164 36.5381C93.2217 36.5516 93.7238 36.4548 94.1879 36.2545C94.652 36.0542 95.0668 35.7551 95.4036 35.3782H95.4809V36.1129C95.4809 38.0655 94.437 39.1094 92.755 39.1094C92.1945 39.0959 91.6506 38.916 91.1927 38.5923C90.7348 38.2687 90.3836 37.816 90.1839 37.2921L88.2313 38.1041C88.5993 39.0001 89.2265 39.7658 90.0324 40.3031C90.8384 40.8404 91.7864 41.1249 92.755 41.12C95.3843 41.12 97.6076 39.5734 97.6076 35.8035V26.6399H95.4809V27.4712ZM92.9098 34.5276C92.1347 34.4618 91.4125 34.1075 90.8862 33.5347C90.3599 32.9618 90.0678 32.2123 90.0678 31.4344C90.0678 30.6565 90.3599 29.9069 90.8862 29.3341C91.4125 28.7613 92.1347 28.4069 92.9098 28.3412C93.2954 28.36 93.6733 28.4563 94.021 28.6243C94.3686 28.7923 94.6788 29.0286 94.9332 29.319C95.1875 29.6095 95.3808 29.9481 95.5015 30.3149C95.6222 30.6816 95.6678 31.0689 95.6356 31.4536C95.6658 31.836 95.6185 32.2205 95.4966 32.5842C95.3747 32.9478 95.1808 33.2832 94.9263 33.5702C94.6718 33.8571 94.3621 34.0898 94.0156 34.2543C93.6691 34.4188 93.293 34.5118 92.9098 34.5276ZM122.167 21.2272H116.801V36.2288H119.04V30.5451H122.167C122.8 30.5798 123.434 30.4851 124.029 30.2666C124.625 30.0482 125.169 29.7106 125.63 29.2746C126.091 28.8386 126.458 28.3132 126.708 27.7306C126.959 27.148 127.088 26.5204 127.088 25.8862C127.088 25.2519 126.959 24.6243 126.708 24.0417C126.458 23.4591 126.091 22.9337 125.63 22.4977C125.169 22.0617 124.625 21.7241 124.029 21.5057C123.434 21.2872 122.8 21.1925 122.167 21.2272ZM122.225 28.4574H119.04V23.315H122.225C122.567 23.308 122.907 23.3692 123.225 23.4953C123.543 23.6213 123.833 23.8095 124.078 24.049C124.322 24.2885 124.516 24.5743 124.649 24.8898C124.781 25.2052 124.85 25.544 124.85 25.8862C124.85 26.2284 124.781 26.5672 124.649 26.8827C124.516 27.1981 124.322 27.484 124.078 27.7234C123.833 27.9629 123.543 28.1512 123.225 28.2772C122.907 28.4032 122.567 28.4645 122.225 28.4574ZM136.063 26.303C135.245 26.2553 134.432 26.4472 133.722 26.8552C133.013 27.2632 132.438 27.8695 132.068 28.5997L134.055 29.4296C134.253 29.0672 134.551 28.7701 134.914 28.5747C135.278 28.3793 135.69 28.2941 136.101 28.3295C136.669 28.274 137.236 28.446 137.677 28.8078C138.119 29.1696 138.399 29.6916 138.456 30.2594V30.4139C137.737 30.0319 136.935 29.833 136.121 29.8349C133.978 29.8349 131.797 31.0122 131.797 33.2124C131.818 33.676 131.932 34.1308 132.132 34.5497C132.332 34.9686 132.614 35.3431 132.961 35.6509C133.309 35.9587 133.714 36.1936 134.154 36.3416C134.594 36.4896 135.059 36.5478 135.522 36.5126C136.086 36.5458 136.648 36.4272 137.151 36.1692C137.653 35.9113 138.077 35.5233 138.379 35.0458H138.456V36.2038H140.617V30.4525C140.617 27.7891 138.629 26.303 136.063 26.303ZM135.792 34.5247C135.059 34.5247 134.036 34.1581 134.036 33.2509C134.036 32.093 135.31 31.649 136.41 31.649C137.125 31.63 137.831 31.8033 138.456 32.1508C138.374 32.8015 138.059 33.4004 137.569 33.8368C137.079 34.2732 136.448 34.5175 135.792 34.5247ZM148.492 26.6311L145.925 33.1351H145.848L143.184 26.6311H140.772L144.767 35.7213L142.489 40.7778H144.825L150.981 26.6311H148.492ZM128.323 36.2288H130.562V21.2272H128.323V36.2288Z" fill="white"/>
<path id="Vector_11" d="M12.5226 9.27413C12.1291 9.74462 11.9304 10.3478 11.9673 10.96V37.4992C11.9303 38.1114 12.129 38.7146 12.5226 39.1851L12.6114 39.2716L27.4781 24.405V24.0542L12.6114 9.18701L12.5226 9.27413Z" fill="url(#paint0_linear_36763_321)"/>
<path id="Vector_12" d="M32.4338 29.3625L27.4785 24.4049V24.0541L32.435 19.0977L32.5467 19.1614L38.418 22.4975C40.0951 23.4503 40.0951 25.0093 38.418 25.9627L32.5467 29.2988L32.4338 29.3625Z" fill="url(#paint1_linear_36763_321)"/>
<path id="Vector_13" d="M32.5452 29.2981L27.477 24.2295L12.5215 39.1849C12.8632 39.4863 13.2996 39.6586 13.755 39.6721C14.2105 39.6856 14.6563 39.5393 15.0152 39.2586L32.5452 29.2981Z" fill="url(#paint2_linear_36763_321)"/>
<path id="Vector_14" d="M32.5452 19.1609L15.0152 9.2005C14.6563 8.91982 14.2105 8.77353 13.755 8.78698C13.2996 8.80044 12.8632 8.97279 12.5215 9.27418L27.477 24.2297L32.5452 19.1609Z" fill="url(#paint3_linear_36763_321)"/>
<g id="Vector_15" opacity="0.2">
<path d="M32.4335 29.187L15.0152 39.0837C14.6701 39.3464 14.2489 39.4898 13.8152 39.4921C13.3815 39.4944 12.9588 39.3556 12.6109 39.0966L12.5215 39.186L12.6103 39.2725L12.6109 39.2719C12.9587 39.531 13.3814 39.67 13.8152 39.6676C14.2489 39.6653 14.6702 39.5219 15.0152 39.259L32.5452 29.2986L32.4335 29.187Z" fill="#222823"/>
<path d="M32.4335 29.187L15.0152 39.0837C14.6701 39.3464 14.2489 39.4898 13.8152 39.4921C13.3815 39.4944 12.9588 39.3556 12.6109 39.0966L12.5215 39.186L12.6103 39.2725L12.6109 39.2719C12.9587 39.531 13.3814 39.67 13.8152 39.6676C14.2489 39.6653 14.6702 39.5219 15.0152 39.259L32.5452 29.2986L32.4335 29.187Z" fill="black" fill-opacity="0.2"/>
<path d="M32.4335 29.187L15.0152 39.0837C14.6701 39.3464 14.2489 39.4898 13.8152 39.4921C13.3815 39.4944 12.9588 39.3556 12.6109 39.0966L12.5215 39.186L12.6103 39.2725L12.6109 39.2719C12.9587 39.531 13.3814 39.67 13.8152 39.6676C14.2489 39.6653 14.6702 39.5219 15.0152 39.259L32.5452 29.2986L32.4335 29.187Z" fill="black" fill-opacity="0.2"/>
<path d="M32.4335 29.187L15.0152 39.0837C14.6701 39.3464 14.2489 39.4898 13.8152 39.4921C13.3815 39.4944 12.9588 39.3556 12.6109 39.0966L12.5215 39.186L12.6103 39.2725L12.6109 39.2719C12.9587 39.531 13.3814 39.67 13.8152 39.6676C14.2489 39.6653 14.6702 39.5219 15.0152 39.259L32.5452 29.2986L32.4335 29.187Z" fill="black" fill-opacity="0.2"/>
</g>
<g id="Vector_16" opacity="0.12">
<path d="M12.5226 39.0106C12.1291 38.5401 11.9304 37.9369 11.9672 37.3247V37.5C11.9304 38.1123 12.1291 38.7154 12.5226 39.1859L12.612 39.0965L12.5226 39.0106Z" fill="#222823"/>
<path d="M12.5226 39.0106C12.1291 38.5401 11.9304 37.9369 11.9672 37.3247V37.5C11.9304 38.1123 12.1291 38.7154 12.5226 39.1859L12.612 39.0965L12.5226 39.0106Z" fill="black" fill-opacity="0.2"/>
<path d="M12.5226 39.0106C12.1291 38.5401 11.9304 37.9369 11.9672 37.3247V37.5C11.9304 38.1123 12.1291 38.7154 12.5226 39.1859L12.612 39.0965L12.5226 39.0106Z" fill="black" fill-opacity="0.2"/>
<path d="M12.5226 39.0106C12.1291 38.5401 11.9304 37.9369 11.9672 37.3247V37.5C11.9304 38.1123 12.1291 38.7154 12.5226 39.1859L12.612 39.0965L12.5226 39.0106Z" fill="black" fill-opacity="0.2"/>
</g>
<g id="Vector_17" opacity="0.12">
<path d="M38.4166 25.7867L32.4336 29.1866L32.5453 29.2982L38.4166 25.9621C38.762 25.8122 39.0609 25.5724 39.2821 25.2678C39.5034 24.9632 39.6389 24.6048 39.6746 24.23C39.6004 24.5694 39.448 24.8868 39.2296 25.1571C39.0113 25.4273 38.7329 25.6429 38.4166 25.7867Z" fill="#222823"/>
<path d="M38.4166 25.7867L32.4336 29.1866L32.5453 29.2982L38.4166 25.9621C38.762 25.8122 39.0609 25.5724 39.2821 25.2678C39.5034 24.9632 39.6389 24.6048 39.6746 24.23C39.6004 24.5694 39.448 24.8868 39.2296 25.1571C39.0113 25.4273 38.7329 25.6429 38.4166 25.7867Z" fill="black" fill-opacity="0.2"/>
<path d="M38.4166 25.7867L32.4336 29.1866L32.5453 29.2982L38.4166 25.9621C38.762 25.8122 39.0609 25.5724 39.2821 25.2678C39.5034 24.9632 39.6389 24.6048 39.6746 24.23C39.6004 24.5694 39.448 24.8868 39.2296 25.1571C39.0113 25.4273 38.7329 25.6429 38.4166 25.7867Z" fill="black" fill-opacity="0.2"/>
<path d="M38.4166 25.7867L32.4336 29.1866L32.5453 29.2982L38.4166 25.9621C38.762 25.8122 39.0609 25.5724 39.2821 25.2678C39.5034 24.9632 39.6389 24.6048 39.6746 24.23C39.6004 24.5694 39.448 24.8868 39.2296 25.1571C39.0113 25.4273 38.7329 25.6429 38.4166 25.7867Z" fill="black" fill-opacity="0.2"/>
</g>
<path id="Vector_18" opacity="0.25" d="M15.0159 9.37662L38.4172 22.6726C38.7336 22.8164 39.012 23.032 39.2304 23.3024C39.4488 23.5728 39.6011 23.8904 39.6751 24.2299C39.6397 23.855 39.5043 23.4964 39.283 23.1916C39.0617 22.8869 38.7627 22.647 38.4172 22.4972L15.0159 9.2013C13.3388 8.24839 11.9668 9.0399 11.9668 10.9609V11.1362C11.9668 9.21534 13.3388 8.42383 15.0159 9.37662Z" fill="white"/>
</g>
</g>
<defs>
<linearGradient id="paint0_linear_36763_321" x1="26.1597" y1="10.6802" x2="6.02096" y2="30.819" gradientUnits="userSpaceOnUse">
<stop stop-color="#00A0FF"/>
<stop offset="0.00657" stop-color="#00A1FF"/>
<stop offset="0.2601" stop-color="#00BEFF"/>
<stop offset="0.5122" stop-color="#00D2FF"/>
<stop offset="0.7604" stop-color="#00DFFF"/>
<stop offset="1" stop-color="#00E3FF"/>
</linearGradient>
<linearGradient id="paint1_linear_36763_321" x1="40.6016" y1="24.2301" x2="11.5655" y2="24.2301" gradientUnits="userSpaceOnUse">
<stop stop-color="#FFE000"/>
<stop offset="0.4087" stop-color="#FFBD00"/>
<stop offset="0.7754" stop-color="#FFA500"/>
<stop offset="1" stop-color="#FF9C00"/>
</linearGradient>
<linearGradient id="paint2_linear_36763_321" x1="29.7913" y1="26.9836" x2="2.48146" y2="54.2934" gradientUnits="userSpaceOnUse">
<stop stop-color="#FF3A44"/>
<stop offset="1" stop-color="#C31162"/>
</linearGradient>
<linearGradient id="paint3_linear_36763_321" x1="8.75582" y1="0.440042" x2="20.9508" y2="12.635" gradientUnits="userSpaceOnUse">
<stop stop-color="#32A071"/>
<stop offset="0.0685" stop-color="#2DA771"/>
<stop offset="0.4762" stop-color="#15CF74"/>
<stop offset="0.8009" stop-color="#06E775"/>
<stop offset="1" stop-color="#00F076"/>
</linearGradient>
</defs>
</svg>
