<svg width="20" height="21" viewBox="0 0 20 21" fill="none" xmlns="http://www.w3.org/2000/svg">
<g id="Icons">
<path id="Shape" d="M8.33301 11.4248C9.05714 12.3929 10.166 12.9987 11.3719 13.0851C12.5777 13.1714 13.7616 12.7298 14.6163 11.8748L17.1163 9.37478C18.6954 7.73986 18.6728 5.14109 17.0656 3.53387C15.4584 1.92664 12.8596 1.90406 11.2247 3.48311L9.79134 4.90811" stroke="#BDBDBD" stroke-width="2" stroke-linecap="round" stroke-linejoin="round"/>
<path id="Shape_2" d="M11.6668 9.75785C10.9427 8.78977 9.83381 8.18393 8.62796 8.09757C7.42211 8.01121 6.2382 8.45284 5.3835 9.30785L2.8835 11.8078C1.30445 13.4428 1.32703 16.0415 2.93426 17.6488C4.54148 19.256 7.14025 19.2786 8.77517 17.6995L10.2002 16.2745" stroke="#BDBDBD" stroke-width="2" stroke-linecap="round" stroke-linejoin="round"/>
</g>
</svg>
