<svg width="24" height="24" viewBox="0 0 24 24" fill="none" xmlns="http://www.w3.org/2000/svg">
<g id="Group">
<path id="Oval Copy 10" fill-rule="evenodd" clip-rule="evenodd" d="M12.1221 24C18.6821 24 24 18.6274 24 12C24 5.37258 18.6821 0 12.1221 0C5.56216 0 0.244263 5.37258 0.244263 12C0.244263 18.6274 5.56216 24 12.1221 24Z" fill="#FFB717"/>
<g id="checkmark">
<path id="XMLID_712_" d="M9.6944 16.8891C9.48967 16.8891 9.302 16.814 9.14846 16.6449L5.75339 12.9066C5.4463 12.5685 5.4463 12.0425 5.75339 11.7043C6.06048 11.3662 6.53818 11.3662 6.84527 11.7043L9.71146 14.8415L16.5187 7.36493C16.8257 7.02679 17.3034 7.02679 17.6105 7.36493C17.9176 7.70307 17.9176 8.22906 17.6105 8.56719L10.2574 16.6449C10.0868 16.814 9.89913 16.8891 9.6944 16.8891Z" fill="white"/>
</g>
</g>
</svg>
